<svg width="204" height="234" viewBox="0 0 204 234" fill="none" xmlns="http://www.w3.org/2000/svg">
<g clip-path="url(#clip0_416_9)">
<g opacity="0.1">
<path opacity="0.1" d="M94.3616 159.407H6.4082C2.8717 159.407 0 156.539 0 152.992V96.3259C0 92.786 2.86484 89.9115 6.4082 89.9115H94.3684C97.9049 89.9115 100.777 92.7791 100.777 96.3259V152.992C100.77 156.532 97.9049 159.407 94.3616 159.407Z" fill="#EA0033"/>
</g>
<path d="M87.6929 146.928H13.0768C9.54034 146.928 6.66864 144.06 6.66864 140.513V100.367C6.66864 96.8268 9.53348 93.9523 13.0768 93.9523H87.6929C91.2294 93.9523 94.1011 96.8199 94.1011 100.367V140.513C94.1011 144.053 91.2294 146.928 87.6929 146.928Z" fill="white"/>
<path d="M32.7949 118.162C32.7949 118.162 28.0521 133.125 37.7433 136.431C47.4412 139.738 48.5241 137.001 50.683 142.167C52.8351 147.332 61.4707 145.103 62.2932 137.152C63.1156 129.201 57.2557 129.818 54.2058 129.406C51.1559 128.995 49.1204 123.383 49.1478 120.461C49.1889 117.545 33.8983 112.07 32.7949 118.162Z" fill="black"/>
<path d="M43.5483 132.198C43.5483 132.198 53.8837 132.83 64.548 142.859C75.2124 152.889 74.9314 178.773 74.9314 178.773L43.096 177.957L43.5483 132.198Z" fill="white"/>
<path d="M75.2741 179.123L42.7602 178.293L43.2194 131.835L43.5826 131.856C43.6854 131.862 54.1647 132.61 64.7948 142.606C75.4454 152.622 75.2946 177.71 75.2878 178.773L75.2741 179.123ZM43.4455 177.621L74.5887 178.417C74.5681 175.302 74.0815 152.292 64.315 143.106C54.9666 134.318 45.7963 132.802 43.891 132.576L43.4455 177.621Z" fill="black"/>
<path d="M54.4731 140.767C61.6078 146.104 76.1239 177.833 71.5182 177.943C66.9057 178.053 11.8843 177.614 10.1572 175.899C8.43005 174.191 15.9211 159.064 15.9211 159.064C15.9211 159.064 27.497 135.251 45.4194 135.107C51.389 135.059 46.8587 135.066 54.4731 140.767Z" fill="white"/>
<path d="M61.5667 178.293C54.9392 178.293 22.343 177.964 21.082 176.235C19.8757 174.575 24.0633 162.562 24.9132 160.168L25.5574 160.401C23.4876 166.205 20.9038 174.829 21.6302 175.83C23.1723 177.216 58.5648 177.737 62.6496 177.6C62.7181 177.6 62.8072 177.573 62.91 177.415C64.596 174.815 60.0726 155.386 57.5573 149.26L58.1947 149C60.5798 154.824 65.439 174.76 63.4857 177.792C63.2253 178.19 62.9032 178.279 62.6701 178.293C62.5468 178.293 62.1561 178.293 61.5667 178.293Z" fill="#1C191B"/>
<path d="M44.6244 167.687C44.6244 167.687 48.7777 164.902 59.5174 167.55C59.5174 167.55 61.6009 168.49 60.004 168.915C58.4071 169.34 54.4183 168.695 54.4183 168.695C54.4183 168.695 60.6003 169.258 60.7442 170.335C60.8813 171.412 54.9118 170.362 54.9118 170.362C54.9118 170.362 61.3474 171.378 61.2651 172.469C61.1897 173.559 57.6121 172.345 54.1373 172.592C50.6625 172.839 44.3297 175.391 43.3496 174.684C42.3695 173.985 40.2312 169.32 44.6244 167.687Z" fill="white"/>
<path d="M43.9321 175.151C43.5826 175.151 43.329 175.096 43.1508 174.966C42.5066 174.506 41.3963 172.544 41.6567 170.616C41.7938 169.574 42.3969 168.167 44.4736 167.378C44.9328 167.09 49.2438 164.662 59.6065 167.214C60.0726 167.413 61.0047 167.906 60.9567 168.517C60.9156 169.025 60.3056 169.189 60.1 169.244C60.0109 169.265 59.9149 169.285 59.8121 169.306C60.5386 169.574 61.0389 169.896 61.0869 170.294C61.1143 170.486 61.0458 170.671 60.9019 170.808C60.71 170.994 60.3193 171.09 59.8258 171.138C60.895 171.515 61.6489 171.975 61.6147 172.496C61.6009 172.702 61.5118 172.88 61.3542 173.011C60.8813 173.402 59.8738 173.292 58.3592 173.134C57.146 173.004 55.6314 172.839 54.1715 172.942C52.6089 173.052 50.402 173.655 48.4487 174.191C46.3104 174.767 44.83 175.151 43.9321 175.151ZM51.1559 166.754C46.7422 166.754 44.8437 167.955 44.8163 167.975L44.7477 168.009C43.3153 168.544 42.5066 169.45 42.3421 170.705C42.1159 172.379 43.1028 174.081 43.562 174.41C43.9596 174.698 46.4543 174.019 48.2705 173.525C50.2512 172.983 52.4993 172.373 54.1236 172.256C55.6451 172.146 57.194 172.311 58.4345 172.448C59.4832 172.565 60.6688 172.688 60.9156 172.482C60.7854 172.043 58.3797 171.309 55.5286 170.815C55.2613 170.774 55.0283 170.733 54.8569 170.705L54.9666 170.026C55.1927 170.061 55.4395 170.102 55.6931 170.143C57.9685 170.493 59.9835 170.582 60.381 170.342C60.1548 170.026 58.6196 169.615 56.6526 169.313C55.4532 169.21 54.4457 169.045 54.3635 169.032L54.4525 168.352C55.1722 168.421 56.0358 168.51 56.9062 168.647C58.0096 168.737 59.2227 168.771 59.9218 168.586C60.2234 168.503 60.285 168.428 60.285 168.428C60.2371 168.359 59.8053 168.057 59.3872 167.865C56.0015 167.035 53.2806 166.754 51.1559 166.754Z" fill="#1C191B"/>
<path d="M41.1427 132.198C34.7276 132.253 27.6957 134.25 20.8832 139.813C11.5827 147.401 -4.1876 171.254 2.70035 183.569C9.58831 195.883 25.4477 191.081 30.9375 188.604C36.4273 186.128 47.1739 177.881 48.3459 174.506C49.7167 170.555 49.1204 167.769 44.1652 166.528C39.2168 165.286 21.034 167.227 17.47 169.546" fill="white"/>
<path d="M17.381 192C11.8706 192 6.00383 190.168 2.3988 183.733C-4.90724 170.671 12.0968 146.537 20.6639 139.546C26.8322 134.51 33.7201 131.924 41.1358 131.855L41.1427 132.542C33.8915 132.603 27.1475 135.142 21.0957 140.081C12.2201 147.326 -3.82435 171.206 2.99507 183.404C10.5615 196.933 28.7444 189.215 30.7936 188.295C36.3794 185.778 46.9066 177.607 48.0169 174.403C48.7845 172.194 48.8394 170.609 48.1951 169.416C47.5577 168.243 46.2144 167.406 44.0829 166.877C39.0592 165.622 21.034 167.653 17.662 169.855L17.285 169.279C20.8421 166.96 38.9838 164.895 44.2474 166.212C46.5777 166.795 48.0649 167.735 48.7983 169.093C49.5453 170.472 49.4973 172.235 48.668 174.636C47.3933 178.3 36.3108 186.573 31.0746 188.933C29.9369 189.434 23.9125 192 17.381 192Z" fill="black"/>
<path d="M48.3459 174.506C49.6892 170.644 49.1341 167.9 44.4873 166.624C44.2406 167.865 44.1789 169.347 44.3571 170.925C44.6586 173.559 45.5565 175.789 46.6599 176.976C47.5166 176.022 48.1197 175.172 48.3459 174.506Z" fill="#EEDA36"/>
<path d="M46.6668 177.483L46.4132 177.209C45.2206 175.919 44.3228 173.587 44.0212 170.966C43.843 169.409 43.891 167.886 44.1515 166.562L44.2268 166.198L44.5832 166.294C46.749 166.891 48.1403 167.817 48.8257 169.134C49.5453 170.507 49.4973 172.249 48.6749 174.623C48.4419 175.295 47.8524 176.166 46.9203 177.209L46.6668 177.483ZM44.7614 167.063C44.5695 168.236 44.549 169.546 44.7066 170.891C44.967 173.148 45.7072 175.233 46.6668 176.454C47.3795 175.624 47.8456 174.918 48.0238 174.396C48.7845 172.215 48.8462 170.644 48.2157 169.45C47.6605 168.387 46.5228 167.598 44.7614 167.063Z" fill="black"/>
<path d="M33.4323 151.346C33.4323 151.346 28.011 147.374 30.1014 145.542C32.1918 143.71 33.9874 147.49 33.9874 147.49C33.9874 147.49 35.2485 144.177 37.0442 145.281C38.8399 146.386 33.4323 151.346 33.4323 151.346Z" fill="#EEDA36"/>
<path d="M33.4597 151.785L33.2335 151.62C33.0759 151.503 29.3749 148.766 29.2858 146.646C29.2584 146.104 29.464 145.645 29.8821 145.274C30.4441 144.78 31.0404 144.595 31.664 144.725C32.7058 144.938 33.5351 146.022 33.9669 146.722C34.3096 146.056 34.9401 145.082 35.7968 144.787C36.2766 144.623 36.7563 144.684 37.2292 144.979C37.5377 145.171 37.7158 145.46 37.7501 145.823C37.9215 147.634 34.104 151.188 33.6722 151.593L33.4597 151.785ZM31.2802 145.377C30.9581 145.377 30.6497 145.514 30.3276 145.796C30.074 146.022 29.9506 146.29 29.9643 146.619C30.026 148.005 32.2946 150.035 33.4117 150.893C34.9607 149.432 37.1607 146.948 37.0647 145.892C37.051 145.748 36.9894 145.645 36.866 145.569C36.5781 145.391 36.2971 145.35 36.0161 145.446C35.1868 145.727 34.5083 147.106 34.3164 147.607L34.0286 148.355L33.6859 147.634C33.4254 147.085 32.5208 145.61 31.5201 145.405C31.4379 145.391 31.3556 145.377 31.2802 145.377Z" fill="#1C191B"/>
<path d="M46.9546 134.394C46.9546 136.267 44.3502 137.79 41.1358 137.79C37.9214 137.79 35.317 136.274 35.317 134.394C35.317 132.521 37.9214 130.998 41.1358 130.998C44.3502 131.005 46.9546 132.521 46.9546 134.394Z" fill="#EEDA36"/>
<path d="M41.1427 138.133C37.6884 138.133 34.9812 136.493 34.9812 134.394C34.9812 132.295 37.6884 130.655 41.1427 130.655C44.5969 130.655 47.3041 132.295 47.3041 134.394C47.3041 136.493 44.5969 138.133 41.1427 138.133ZM41.1427 131.348C38.175 131.348 35.6666 132.747 35.6666 134.401C35.6666 136.054 38.175 137.454 41.1427 137.454C44.1103 137.454 46.6188 136.054 46.6188 134.401C46.6188 132.747 44.1103 131.348 41.1427 131.348Z" fill="#1C191B"/>
<path d="M30.307 118.162C30.307 120.529 32.2397 122.45 34.6317 122.45C37.0236 122.45 38.9564 120.529 38.9564 118.162C38.9564 115.796 37.0236 113.875 34.6317 113.875C32.2397 113.875 30.307 115.796 30.307 118.162Z" fill="white"/>
<path d="M34.6248 122.8C32.0547 122.8 29.9575 120.721 29.9575 118.169C29.9575 115.617 32.0478 113.538 34.6248 113.538C37.2018 113.538 39.2922 115.617 39.2922 118.169C39.2922 120.721 37.2018 122.8 34.6248 122.8ZM34.6248 114.218C32.4317 114.218 30.6428 115.988 30.6428 118.162C30.6428 120.337 32.4248 122.107 34.6248 122.107C36.8249 122.107 38.6068 120.337 38.6068 118.162C38.6068 115.988 36.8249 114.218 34.6248 114.218Z" fill="black"/>
<path d="M48.2911 105.622H43.1782C39.7788 105.622 36.9962 108.791 36.9962 112.667V120.605C36.9962 120.831 37.0099 121.05 37.0236 121.27C36.9688 121.503 36.9345 121.743 36.9345 121.997V126.827V127.094V131.924C36.9345 133.673 38.3669 135.114 40.1215 135.114H42.1502C43.8979 135.114 45.3371 133.68 45.3371 131.924V127.65H48.2911C51.6905 127.65 54.4731 124.481 54.4731 120.605V112.667C54.4731 108.791 51.6905 105.622 48.2911 105.622Z" fill="white"/>
<path d="M42.1502 135.45H40.1215C38.175 135.45 36.5918 133.866 36.5918 131.917V121.99C36.5918 121.743 36.6193 121.49 36.6741 121.236C36.6604 121.023 36.6467 120.81 36.6467 120.598V112.66C36.6467 108.585 39.5732 105.272 43.1714 105.272H48.2842C51.8824 105.272 54.8089 108.585 54.8089 112.66V120.598C54.8089 124.673 51.8824 127.986 48.2842 127.986H45.673V131.917C45.6798 133.866 44.0966 135.45 42.1502 135.45ZM43.1782 105.965C39.957 105.965 37.3389 108.969 37.3389 112.667V120.605C37.3389 120.817 37.3526 121.03 37.3663 121.236L37.3732 121.291L37.3595 121.345C37.3046 121.565 37.2841 121.785 37.2841 121.997V131.924C37.2841 133.495 38.5589 134.771 40.1283 134.771H42.157C43.7265 134.771 44.9945 133.495 44.9945 131.924V127.307H48.2911C51.5123 127.307 54.1304 124.302 54.1304 120.605V112.667C54.1304 108.969 51.5123 105.965 48.2911 105.965H43.1782Z" fill="black"/>
<path d="M36.5644 116.235C36.5644 116.235 41.5813 114.567 43.096 111.329C44.6175 108.091 44.2406 107.392 44.2406 107.392C44.2406 107.392 47.0643 111.268 51.5329 112.214C55.2202 113.003 55.0694 112.455 55.4326 111.597C55.7684 110.808 55.9946 105.34 50.3883 101.979C44.7888 98.6172 38.7713 98.9465 34.6248 103.138C30.4715 107.33 30.9787 113.929 32.3768 115.583C33.775 117.229 35.6118 118.155 36.5644 116.235Z" fill="black"/>
<path d="M39.4954 96.8323C40.1304 94.1406 38.4652 91.4432 35.7761 90.8076C33.0869 90.172 30.3922 91.8389 29.7572 94.5306C29.1222 97.2223 30.7875 99.9197 33.4766 100.555C36.1657 101.191 38.8604 99.524 39.4954 96.8323Z" fill="black"/>
<path d="M30.5537 118.162C30.5537 120.392 32.3768 122.203 34.6248 122.203C36.8728 122.203 38.6959 120.392 38.6959 118.162C38.6959 115.933 36.8728 114.122 34.6248 114.122C32.3768 114.122 30.5537 115.933 30.5537 118.162Z" fill="white"/>
<path d="M37.1744 118.718L36.489 118.677C36.489 118.663 36.5439 117.627 35.9133 117.023C35.5364 116.66 34.9744 116.523 34.2342 116.598L34.1588 115.919C35.1114 115.816 35.8585 116.022 36.3931 116.53C37.2498 117.353 37.1744 118.663 37.1744 118.718Z" fill="#020202"/>
<path d="M45.392 116.413C46.0279 116.413 46.5434 115.897 46.5434 115.261C46.5434 114.624 46.0279 114.108 45.392 114.108C44.7561 114.108 44.2406 114.624 44.2406 115.261C44.2406 115.897 44.7561 116.413 45.392 116.413Z" fill="black"/>
<path d="M51.7865 115.089C51.7865 115.631 52.2251 116.077 52.7734 116.077C53.3217 116.077 53.7603 115.638 53.7603 115.089C53.7603 114.547 53.3217 114.101 52.7734 114.101C52.2251 114.101 51.7865 114.547 51.7865 115.089Z" fill="black"/>
<path d="M48.7366 121.963C48.25 121.963 47.7771 121.778 47.359 121.421C46.7559 120.906 46.3378 120.09 46.2898 119.335L46.9752 119.294C47.0094 119.864 47.3453 120.509 47.8045 120.9C48.0306 121.092 48.4007 121.318 48.8531 121.277C49.8332 121.188 50.3609 119.72 50.3677 119.699L51.0189 119.919C50.9914 119.994 50.354 121.819 48.9216 121.956C48.8531 121.963 48.7983 121.963 48.7366 121.963Z" fill="#0C0C0C"/>
<g opacity="0.1">
<g opacity="0.1">
<path opacity="0.1" d="M40.238 119.5C40.238 121.085 41.5196 122.368 43.1028 122.368C44.686 122.368 45.9677 121.085 45.9677 119.5C45.9677 117.915 44.686 116.633 43.1028 116.633C41.5196 116.633 40.238 117.915 40.238 119.5Z" fill="#EA0033"/>
</g>
<g opacity="0.1">
<path opacity="0.1" d="M53.7055 117.559C53.8768 117.559 54.0482 117.579 54.2127 117.62V120.598C54.2127 121.044 54.199 121.469 54.103 121.888C53.9865 121.908 53.8289 121.922 53.7055 121.922C52.4993 121.922 51.526 120.948 51.526 119.74C51.526 118.533 52.4993 117.559 53.7055 117.559Z" fill="#EA0033"/>
</g>
</g>
<path d="M49.3945 114.101L49.1546 118.032L51.0326 116.886L49.3945 114.101Z" fill="#DB7294"/>
<path d="M86.1577 105.965H65.5487C63.3144 105.965 61.4981 104.147 61.4981 101.91C61.4981 99.6737 63.3144 97.8557 65.5487 97.8557H86.1577C88.392 97.8557 90.2082 99.6737 90.2082 101.91C90.2082 104.147 88.392 105.965 86.1577 105.965ZM65.5487 98.5486C63.6913 98.5486 62.1835 100.058 62.1835 101.917C62.1835 103.776 63.6913 105.285 65.5487 105.285H86.1577C88.0151 105.285 89.5229 103.776 89.5229 101.917C89.5229 100.058 88.0151 98.5486 86.1577 98.5486H65.5487Z" fill="black"/>
<path d="M87.693 147.271H13.0768C9.35529 147.271 6.32596 144.238 6.32596 140.513V100.367C6.32596 96.6415 9.35529 93.6093 13.0768 93.6093H87.693C91.4145 93.6093 94.4438 96.6415 94.4438 100.367V140.513C94.4438 144.238 91.4145 147.271 87.693 147.271ZM13.0768 94.3022C9.73224 94.3022 7.01133 97.0257 7.01133 100.374V140.52C7.01133 143.868 9.73224 146.592 13.0768 146.592H87.693C91.0376 146.592 93.7585 143.868 93.7585 140.52V100.367C93.7585 97.0188 91.0376 94.2953 87.693 94.2953H13.0768V94.3022Z" fill="black"/>
<path d="M52.8488 152.972C52.6912 155.942 48.2088 155.97 48.2088 152.972C48.2088 149.974 52.6843 150.001 52.8488 152.972C52.8762 153.52 53.7329 153.527 53.7055 152.972C53.6095 151.25 52.3279 149.795 50.5322 149.795C48.812 149.795 47.3453 151.243 47.359 152.972C47.3658 154.646 48.7092 156.066 50.3883 156.141C52.2457 156.223 53.6164 154.755 53.7124 152.972C53.7329 152.423 52.8762 152.423 52.8488 152.972Z" fill="black"/>
<g opacity="0.1">
<path opacity="0.1" d="M152.241 65.7494H78.2691C75.2946 65.7494 72.8821 63.3346 72.8821 60.3572V12.7053C72.8821 9.72795 75.2946 7.31311 78.2691 7.31311H152.241C155.215 7.31311 157.628 9.72795 157.628 12.7053V60.3572C157.628 63.3414 155.215 65.7494 152.241 65.7494Z" fill="#EA0033"/>
</g>
<path d="M146.635 55.26H83.8823C80.9078 55.26 78.4953 52.8451 78.4953 49.8677V16.1012C78.4953 13.1238 80.9078 10.709 83.8823 10.709H146.635C149.609 10.709 152.022 13.1238 152.022 16.1012V49.8609C152.022 52.8451 149.609 55.26 146.635 55.26Z" fill="white"/>
<path d="M146.635 55.6029H83.8823C80.7227 55.6029 78.1526 53.0303 78.1526 49.8677V16.108C78.1526 12.9454 80.7227 10.3728 83.8823 10.3728H146.635C149.794 10.3728 152.364 12.9454 152.364 16.108V49.8677C152.364 53.0303 149.794 55.6029 146.635 55.6029ZM83.8823 11.052C81.0997 11.052 78.838 13.3159 78.838 16.1012V49.8609C78.838 52.6461 81.0997 54.91 83.8823 54.91H146.635C149.417 54.91 151.679 52.6461 151.679 49.8609V16.108C151.679 13.3227 149.417 11.0588 146.635 11.0588H83.8823V11.052Z" fill="black"/>
<path d="M97.8021 55.2599H131.892C128.452 50.5949 122.105 47.4666 114.847 47.4666C107.589 47.4597 101.243 50.5949 97.8021 55.2599Z" fill="#EEDA36"/>
<path d="M132.578 55.6029H97.1304L97.5348 55.0541C101.147 50.1627 107.781 47.1167 114.854 47.1167C121.927 47.1167 128.568 50.1558 132.173 55.0541L132.578 55.6029ZM98.5012 54.9169H131.2C127.636 50.5126 121.447 47.8096 114.854 47.8096C108.261 47.8027 102.065 50.5126 98.5012 54.9169Z" fill="black"/>
<path d="M115.286 51.6445C118.371 51.6445 120.872 50.1856 120.872 48.3859C120.872 46.5861 118.371 45.1272 115.286 45.1272C112.201 45.1272 109.7 46.5861 109.7 48.3859C109.7 50.1856 112.201 51.6445 115.286 51.6445Z" fill="black"/>
<path d="M115.286 51.9875C111.962 51.9875 109.357 50.4028 109.357 48.3859C109.357 46.3689 111.962 44.7842 115.286 44.7842C118.61 44.7842 121.214 46.3689 121.214 48.3859C121.214 50.4028 118.61 51.9875 115.286 51.9875ZM115.286 45.4702C112.442 45.4702 110.043 46.808 110.043 48.3859C110.043 49.9637 112.442 51.3015 115.286 51.3015C118.13 51.3015 120.529 49.9637 120.529 48.3859C120.529 46.808 118.13 45.4702 115.286 45.4702Z" fill="#1C191B"/>
<path d="M104.875 32.7992C104.875 35.0768 106.732 36.9223 109.028 36.9223C111.324 36.9223 113.182 35.0768 113.182 32.7992C113.182 30.5216 111.324 28.6761 109.028 28.6761C106.739 28.6761 104.875 30.5216 104.875 32.7992Z" fill="white"/>
<path d="M109.028 37.2584C106.547 37.2584 104.532 35.2552 104.532 32.7924C104.532 30.3295 106.547 28.3263 109.028 28.3263C111.509 28.3263 113.524 30.3295 113.524 32.7924C113.524 35.2552 111.509 37.2584 109.028 37.2584ZM109.028 29.0192C106.931 29.0192 105.218 30.7137 105.218 32.7992C105.218 34.8848 106.924 36.5793 109.028 36.5793C111.126 36.5793 112.839 34.8848 112.839 32.7992C112.839 30.7137 111.126 29.0192 109.028 29.0192Z" fill="black"/>
<path d="M122.153 20.7524H117.239C113.977 20.7524 111.304 23.7984 111.304 27.5167V35.1386C111.304 35.3512 111.318 35.5639 111.331 35.7766C111.276 36.003 111.249 36.2362 111.249 36.4763V41.1139V41.3746V46.0122C111.249 47.693 112.627 49.0719 114.306 49.0719H116.252C117.931 49.0719 119.309 47.693 119.309 46.0122V41.9028H122.146C125.409 41.9028 128.082 38.8568 128.082 35.1386V27.5167C128.095 23.7916 125.422 20.7524 122.153 20.7524Z" fill="white"/>
<path d="M116.259 49.4149H114.313C112.435 49.4149 110.913 47.885 110.913 46.0122V36.4763C110.913 36.2431 110.941 35.9961 110.995 35.756C110.982 35.557 110.968 35.3512 110.968 35.1454V27.5167C110.968 23.5995 113.785 20.4094 117.246 20.4094H122.16C125.621 20.4094 128.438 23.5995 128.438 27.5167V35.1385C128.438 39.0558 125.621 42.2458 122.16 42.2458H119.665V46.0122C119.659 47.885 118.13 49.4149 116.259 49.4149ZM117.246 21.0955C114.162 21.0955 111.653 23.9768 111.653 27.5167V35.1385C111.653 35.3444 111.66 35.5433 111.681 35.7491L111.688 35.804L111.674 35.8589C111.626 36.0716 111.599 36.2774 111.599 36.4763V46.0122C111.599 47.5077 112.819 48.7289 114.313 48.7289H116.259C117.753 48.7289 118.973 47.5077 118.973 46.0122V41.5598H122.153C125.237 41.5598 127.746 38.6785 127.746 35.1385V27.5167C127.746 23.9768 125.237 21.0955 122.153 21.0955H117.246Z" fill="black"/>
<path d="M110.893 30.94C110.893 30.94 115.711 29.3416 117.171 26.227C118.63 23.1193 118.267 22.4469 118.267 22.4469C118.267 22.4469 120.981 26.1652 125.272 27.0845C128.815 27.8392 128.671 27.3178 129.021 26.4877C129.343 25.733 129.555 20.478 124.175 17.2468C118.795 14.0156 113.017 14.338 109.028 18.3582C105.04 22.3852 105.526 28.7241 106.87 30.3089C108.213 31.9005 109.974 32.7855 110.893 30.94Z" fill="black"/>
<path d="M83.1969 25.0402C80.2978 25.0402 77.0971 24.3816 74.6846 22.5224C72.231 20.629 70.9014 17.7614 70.73 14.0019C70.5107 9.02131 72.8478 5.09034 77.1519 3.21061C80.8666 1.59157 85.2599 1.98261 87.3708 4.12303C88.7484 5.52254 89.6873 6.31148 90.3522 6.20857C90.8799 6.12625 91.4213 5.46766 92.1752 4.00641C93.1827 2.05121 95.3074 0.521361 97.5965 0.116602C99.399 -0.205834 102.168 -0.0274652 105.108 2.6755C107.946 5.27557 108.083 7.86191 107.692 9.57699C107.151 11.9918 105.314 13.7687 103.868 14.2146C102.49 14.6399 101.023 13.9333 99.7211 13.3159C98.4189 12.6916 97.2949 12.1565 96.5479 12.7602L96.4725 12.8219L96.3834 12.8356C96.2943 12.8494 94.5603 13.1718 94.293 16.1012C93.9983 19.3804 91.9285 23.5858 87.0898 24.6354C85.9521 24.8824 84.6088 25.0402 83.1969 25.0402ZM81.9221 2.88817C80.4554 2.88817 78.8859 3.19689 77.4261 3.8349C73.403 5.59114 71.2098 9.28886 71.4154 13.9676C71.573 17.5213 72.8136 20.2174 75.1027 21.9805C78.509 24.608 83.615 24.6903 86.9527 23.9631C91.435 22.9889 93.3472 19.0854 93.6214 16.0326C93.9092 12.8974 95.7392 12.28 96.1915 12.1702C97.2675 11.3744 98.6657 12.0467 100.023 12.6916C101.263 13.2816 102.552 13.899 103.669 13.5491C104.951 13.1512 106.554 11.4979 107.027 9.4192C107.37 7.88935 107.24 5.55684 104.649 3.17631C101.914 0.665428 99.3716 0.487059 97.7199 0.788914C95.6363 1.15937 93.6968 2.54516 92.7852 4.31512C92.045 5.75579 91.3665 6.73682 90.455 6.88088C89.4817 7.02495 88.4879 6.22915 86.8842 4.60326C85.767 3.47816 83.9371 2.88817 81.9221 2.88817Z" fill="black"/>
<path d="M109.296 16.2864C110.462 16.2864 111.407 15.3404 111.407 14.1734C111.407 13.0064 110.462 12.0604 109.296 12.0604C108.13 12.0604 107.185 13.0064 107.185 14.1734C107.185 15.3404 108.13 16.2864 109.296 16.2864Z" fill="#EA0033"/>
<path d="M109.296 16.6294C107.946 16.6294 106.842 15.5249 106.842 14.1734C106.842 12.8219 107.946 11.7174 109.296 11.7174C110.646 11.7174 111.749 12.8219 111.749 14.1734C111.749 15.5249 110.646 16.6294 109.296 16.6294ZM109.296 12.4034C108.323 12.4034 107.527 13.1992 107.527 14.1734C107.527 15.1476 108.323 15.9434 109.296 15.9434C110.269 15.9434 111.064 15.1476 111.064 14.1734C111.064 13.1992 110.269 12.4034 109.296 12.4034Z" fill="black"/>
<path d="M105.115 32.7992C105.115 34.9465 106.863 36.6822 109.028 36.6822C111.187 36.6822 112.942 34.9465 112.942 32.7992C112.942 30.6519 111.194 28.9163 109.028 28.9163C106.87 28.9163 105.115 30.6519 105.115 32.7992Z" fill="white"/>
<path d="M111.489 33.3343L110.804 33.2931C110.804 33.2863 110.858 32.2915 110.255 31.7153C109.892 31.3722 109.351 31.235 108.652 31.3105L108.576 30.6313C109.488 30.5284 110.221 30.7342 110.735 31.2213C111.564 32.0171 111.489 33.2794 111.489 33.3343Z" fill="#020202"/>
<path d="M118.26 30.007C118.26 30.6176 118.754 31.1184 119.371 31.1184C119.981 31.1184 120.481 30.6244 120.481 30.007C120.481 29.3964 119.987 28.8956 119.371 28.8956C118.761 28.8956 118.26 29.3964 118.26 30.007Z" fill="#0C0C0C"/>
<path d="M125.512 29.8424C125.512 30.3637 125.936 30.7891 126.457 30.7891C126.978 30.7891 127.403 30.3637 127.403 29.8424C127.403 29.321 126.978 28.8956 126.457 28.8956C125.936 28.8956 125.512 29.321 125.512 29.8424Z" fill="#0C0C0C"/>
<path d="M124.456 34.3771C124.456 34.3771 123.901 36.003 122.722 36.1127C121.543 36.2225 120.625 34.919 120.563 33.9037L124.456 34.3771Z" fill="#FFF7F7"/>
<path d="M122.578 36.4625C122.105 36.4625 121.653 36.2842 121.249 35.9343C120.666 35.4404 120.262 34.6446 120.221 33.9174L120.193 33.5057L124.915 34.082L124.778 34.4799C124.751 34.5554 124.134 36.3116 122.756 36.442C122.695 36.4625 122.64 36.4625 122.578 36.4625ZM120.981 34.3015C121.105 34.72 121.365 35.1385 121.694 35.4198C121.913 35.605 122.256 35.8177 122.688 35.7765C123.298 35.7216 123.73 35.0905 123.949 34.6651L120.981 34.3015Z" fill="#0C0C0C"/>
<path d="M114.415 34.0821C114.415 35.6051 115.649 36.8399 117.171 36.8399C118.692 36.8399 119.926 35.6051 119.926 34.0821C119.926 32.5591 118.692 31.3242 117.171 31.3242C115.649 31.3242 114.415 32.5591 114.415 34.0821Z" fill="#E4B0C8"/>
<path d="M127.355 32.2161C127.52 32.2161 127.684 32.2366 127.842 32.2778V35.1317C127.842 35.557 127.828 35.9687 127.739 36.3734C127.623 36.394 127.479 36.4077 127.355 36.4077C126.197 36.4077 125.258 35.4679 125.258 34.3085C125.258 33.1559 126.197 32.2161 127.355 32.2161Z" fill="#E4B0C8"/>
<path d="M123.209 28.8956L122.983 32.6688L124.785 31.5712L123.209 28.8956Z" fill="#DB7294"/>
<path d="M117.26 60.3434C117.13 62.7582 113.497 62.7788 113.497 60.3434C113.497 57.908 117.13 57.9285 117.26 60.3434C117.287 60.8922 118.144 60.8991 118.116 60.3434C118.034 58.8547 116.931 57.5992 115.375 57.5992C113.888 57.5992 112.627 58.8478 112.633 60.3434C112.64 61.7909 113.805 63.012 115.245 63.0806C116.842 63.1492 118.027 61.8869 118.11 60.3434C118.144 59.7945 117.287 59.7945 117.26 60.3434Z" fill="black"/>
<g opacity="0.1">
<path opacity="0.1" d="M198.565 140.191H123.901C120.899 140.191 118.466 137.755 118.466 134.751V86.6528C118.466 83.6479 120.899 81.2125 123.901 81.2125H198.558C201.56 81.2125 203.993 83.6479 203.993 86.6528V134.751C204 137.755 201.567 140.191 198.565 140.191Z" fill="#EA0033"/>
</g>
<path d="M163.262 134.73C163.131 137.172 159.451 137.193 159.451 134.73C159.451 132.267 163.125 132.295 163.262 134.73C163.289 135.279 164.146 135.286 164.118 134.73C164.036 133.234 162.919 131.965 161.356 131.965C159.862 131.965 158.587 133.228 158.594 134.73C158.601 136.184 159.773 137.419 161.226 137.488C162.837 137.563 164.029 136.28 164.112 134.73C164.146 134.181 163.289 134.181 163.262 134.73Z" fill="black"/>
<path d="M192.904 129.598H129.569C126.567 129.598 124.134 127.163 124.134 124.158V90.0829C124.134 87.0781 126.567 84.6427 129.569 84.6427H192.904C195.906 84.6427 198.339 87.0781 198.339 90.0829V124.158C198.339 127.163 195.906 129.598 192.904 129.598Z" fill="white"/>
<path d="M116.759 128.528C116.759 128.528 127.965 117.819 139.891 115.603C151.816 113.387 175.701 113.614 188.627 130.717C201.553 147.826 169.786 162.96 168.909 163.07C168.032 163.18 116.43 154.536 114.457 153.047C112.483 151.558 105.033 142.674 116.759 128.528Z" fill="#EA0033" stroke="black" stroke-width="0.909" stroke-miterlimit="10"/>
<path d="M165.421 119.706C165.421 119.706 184.741 158.563 180.416 165.986C176.092 173.408 144.078 180.488 128.102 172.379C109.419 162.898 133.996 123.52 139.802 114.444L165.421 119.706Z" fill="#EA0033" stroke="black" stroke-width="0.9716" stroke-miterlimit="10"/>
<path d="M135.463 128.528C135.463 130.97 137.444 132.953 139.884 132.953C142.324 132.953 144.304 130.97 144.304 128.528C144.304 126.086 142.324 124.103 139.884 124.103C137.444 124.103 135.463 126.086 135.463 128.528Z" fill="white"/>
<path d="M192.904 129.598H129.569C126.567 129.598 124.134 127.163 124.134 124.158V90.0829C124.134 87.0781 126.567 84.6427 129.569 84.6427H192.904C195.906 84.6427 198.339 87.0781 198.339 90.0829V124.158C198.339 127.163 195.906 129.598 192.904 129.598Z" stroke="black" stroke-miterlimit="10"/>
<path d="M168.138 117.52C168.706 111.972 162.219 106.762 153.649 105.882C145.079 105.002 137.671 108.787 137.102 114.335C136.534 119.883 143.021 125.094 151.591 125.974C160.161 126.853 167.57 123.069 168.138 117.52Z" fill="#EA0033" stroke="black" stroke-width="0.9716" stroke-miterlimit="10"/>
<path d="M144.38 100.552C144.38 102.788 146.21 104.606 148.465 104.606C150.719 104.606 152.549 102.788 152.549 100.552C152.549 98.3153 150.719 96.4973 148.465 96.4973C146.21 96.4973 144.38 98.3153 144.38 100.552Z" stroke="black" stroke-width="1.8801" stroke-miterlimit="10"/>
<path d="M162.179 87.97H157.045C153.632 87.97 150.843 91.1532 150.843 95.0361V102.994C150.843 103.22 150.857 103.44 150.87 103.66C150.815 103.893 150.781 104.14 150.781 104.387V109.23V109.498V114.341C150.781 116.097 152.22 117.538 153.975 117.538H156.01C157.765 117.538 159.204 116.097 159.204 114.341V110.053H162.172C165.585 110.053 168.375 106.87 168.375 102.987V95.0293C168.381 91.1463 165.592 87.97 162.179 87.97Z" fill="white" stroke="black" stroke-width="0.94" stroke-miterlimit="10"/>
<path d="M158.115 97.6362C158.115 98.2742 158.635 98.7956 159.273 98.7956C159.91 98.7956 160.431 98.2742 160.431 97.6362C160.431 96.9982 159.91 96.4768 159.273 96.4768C158.629 96.4768 158.115 96.9982 158.115 97.6362Z" fill="#0C0C0C"/>
<path d="M165.681 97.4647C165.681 98.0135 166.12 98.4526 166.668 98.4526C167.216 98.4526 167.655 98.0067 167.655 97.4647C167.655 96.9227 167.216 96.4768 166.668 96.4768C166.12 96.4768 165.681 96.9227 165.681 97.4647Z" fill="#0C0C0C"/>
<path d="M164.578 102.205C164.578 102.205 163.995 103.9 162.768 104.016C161.541 104.133 160.575 102.768 160.513 101.704L164.578 102.205Z" fill="#FFF7F7"/>
<path d="M164.235 102.109C164.057 102.617 163.714 103.186 163.248 103.474C162.083 104.195 160.986 102.754 160.87 101.711C160.753 101.828 160.63 101.951 160.513 102.068C161.87 102.233 163.227 102.397 164.584 102.569C165.044 102.624 165.037 101.903 164.584 101.848C163.227 101.684 161.87 101.519 160.513 101.348C160.335 101.327 160.136 101.533 160.157 101.704C160.301 103.035 161.363 104.558 162.871 104.359C163.906 104.222 164.605 103.214 164.934 102.294C165.085 101.862 164.386 101.677 164.235 102.109Z" fill="#0C0C0C"/>
<path d="M154.091 101.896C154.091 103.488 155.38 104.771 156.963 104.771C158.546 104.771 159.835 103.481 159.835 101.896C159.835 100.305 158.546 99.022 156.963 99.022C155.38 99.022 154.091 100.305 154.091 101.896Z" fill="#E4B0C8"/>
<path d="M167.607 99.9413C167.785 99.9413 167.95 99.9619 168.114 100.003V102.987C168.114 103.433 168.1 103.865 168.004 104.284C167.881 104.304 167.73 104.318 167.607 104.318C166.401 104.318 165.421 103.337 165.421 102.13C165.421 100.922 166.401 99.9413 167.607 99.9413Z" fill="#E4B0C8"/>
<path d="M163.282 96.4768L163.042 100.421L164.927 99.2758L163.282 96.4768Z" fill="#DB7294"/>
<path d="M152.193 100.421L153.139 94.1854C153.139 94.1854 170.376 96.3464 175.962 87.97C181.547 79.5866 175.681 76.2731 172.836 76.7465C169.992 77.2198 166.675 81.2949 166.675 81.2949C166.675 81.2949 169.32 77.6932 166.675 77.1238C164.029 76.5544 161.11 79.3054 159.588 82.1455C159.588 82.1455 148.225 81.0822 144.387 87.9631C140.549 94.844 143.66 99.7286 150.685 106.836L151.151 102.857L152.193 100.421Z" fill="black"/>
<path d="M144.38 100.552C144.38 102.788 146.21 104.606 148.465 104.606C150.719 104.606 152.549 102.788 152.549 100.552C152.549 98.3153 150.719 96.4973 148.465 96.4973C146.21 96.4973 144.38 98.3153 144.38 100.552Z" fill="white"/>
<path d="M151.117 101.087C151.151 100.538 151.014 99.9412 150.761 99.4541C150.226 98.4319 149.123 98.0958 148.026 98.1918C147.464 98.2398 147.457 99.1317 148.026 99.0768C148.855 99.0013 149.685 99.166 150.041 100.003C150.185 100.332 150.247 100.723 150.226 101.087C150.199 101.656 151.09 101.656 151.117 101.087Z" fill="#020202"/>
<path d="M159.581 82.1456C159.581 82.1456 148.225 93.8905 143.516 97.4647C143.516 97.4647 137.396 83.9018 140.871 80.1149C143.66 77.0827 157.258 78.8595 159.581 82.1456Z" fill="#EEDA36" stroke="black" stroke-width="0.94" stroke-miterlimit="10"/>
<path d="M155.832 79.9365L141.981 93.5954" stroke="black" stroke-width="0.94" stroke-miterlimit="10"/>
<path d="M162.741 111.343L164.591 118.224L150.576 122.669L149.849 119.795L144.668 116.715L146.813 110.911L152.947 115.686L153.351 116.022C153.351 116.022 153.577 116.399 154.708 115.775C155.846 115.144 162.741 111.343 162.741 111.343Z" fill="#EA0033"/>
<path d="M163.282 111.048L149.918 118.416L149.835 120.165" stroke="black" stroke-width="0.94" stroke-miterlimit="10"/>
<path d="M146.484 110.897L153.776 116.289" stroke="black" stroke-width="0.94" stroke-miterlimit="10"/>
<path d="M146.484 118.91C146.484 118.91 137.026 125.187 130.57 122.669" stroke="black" stroke-width="0.94" stroke-miterlimit="10"/>
<path d="M146.251 119.905C146.834 119.905 147.306 119.432 147.306 118.848C147.306 118.265 146.834 117.792 146.251 117.792C145.668 117.792 145.195 118.265 145.195 118.848C145.195 119.432 145.668 119.905 146.251 119.905Z" stroke="black" stroke-width="0.94" stroke-miterlimit="10"/>
<path d="M158.341 121.249C158.341 121.853 158.827 122.34 159.43 122.34C160.034 122.34 160.52 121.853 160.52 121.249C160.52 120.646 160.034 120.159 159.43 120.159C158.827 120.165 158.341 120.653 158.341 121.249Z" stroke="black" stroke-width="0.94" stroke-miterlimit="10"/>
<path d="M159.424 121.249C159.424 121.249 163.282 132.397 170.019 135.636" stroke="black" stroke-width="0.94" stroke-miterlimit="10"/>
</g>
<g clip-path="url(#clip1_416_9)">
<path d="M54.6676 207.638C55.7738 211.435 56.8894 215.221 58.1105 219.402C55.448 219.292 53.8901 217.819 53.1632 216.022C51.0167 210.699 48.927 205.322 47.3896 199.81C46.5048 196.65 48.6316 194.82 51.8074 195.587C57.1008 196.87 62.321 198.418 67.5747 199.863C67.8805 199.944 68.2955 200.007 68.4493 200.218C68.9553 200.917 69.3553 201.682 69.8033 202.415C69.1652 202.777 68.4997 203.491 67.8859 203.451C65.8227 203.313 63.7629 202.914 61.7095 202.616C60.6269 202.455 59.5543 202.293 58.0139 202.803C59.2006 203.96 60.3506 205.168 61.5928 206.251C86.8807 228.442 122.824 231.228 151.353 213.168C155.002 210.859 158.361 208.097 161.876 205.566C163.102 204.686 164.372 203.872 165.62 203.02C165.905 203.243 166.189 203.455 166.474 203.677C166.193 204.607 166.189 205.78 165.598 206.419C163.559 208.665 161.458 210.904 159.127 212.838C135.495 232.397 101.121 235.311 73.3841 219.901C68.0946 216.965 63.3434 213.052 58.3684 209.555C57.3403 208.839 56.4223 207.966 55.4589 207.167C55.1891 207.334 54.9281 207.481 54.6676 207.638Z" fill="black"/>
</g>
<defs>
<clipPath id="clip0_416_9">
<rect width="204" height="192" fill="white"/>
</clipPath>
<clipPath id="clip1_416_9">
<rect width="38.36" height="118.7" fill="white" transform="translate(165.455 188) rotate(86.3163)"/>
</clipPath>
</defs>
</svg>
