<svg width="344" height="158" viewBox="0 0 344 158" fill="none" xmlns="http://www.w3.org/2000/svg">
<rect x="11" width="233" height="158" rx="8" fill="#EA0033" fill-opacity="0.1"/>
<rect x="20.5" y="33.5" width="213" height="115" rx="8.5" fill="white" stroke="#EA0033"/>
<g clip-path="url(#clip0_416_6)">
<path d="M208.71 147.925H180.649H169.44H160.15H158.316H47.1581" stroke="black" stroke-width="1.3547" stroke-miterlimit="10" stroke-linecap="round" stroke-linejoin="round"/>
<path d="M178.753 147.925L128.372 146.591L77.9912 147.925C69.9739 134.297 76.7716 115.173 91.9297 99.6526C99.6183 91.7827 109.236 88.4841 116.844 87.1495C122.036 86.239 126.29 86.239 128.367 86.32C130.282 86.2438 134.05 86.239 138.695 86.954C146.474 88.1505 156.711 91.3633 164.809 99.6526C179.972 115.173 186.765 134.302 178.753 147.925Z" fill="#EA0033"/>
<path d="M178.753 148.249C178.748 148.249 178.748 148.249 178.743 148.249L128.362 146.915L78.0007 148.249C77.8816 148.269 77.772 148.192 77.7148 148.092C70.0548 135.069 75.5474 115.969 91.701 99.4333C99.685 91.2631 109.751 88.0742 116.791 86.8396C122.012 85.9244 126.295 85.9244 128.386 86.0054C130.215 85.9339 134.031 85.9149 138.747 86.6394C146.155 87.7786 156.73 90.9247 165.043 99.4333C181.201 115.974 186.689 135.074 179.029 148.092C178.972 148.188 178.867 148.249 178.753 148.249ZM128.362 146.271L178.567 147.601C185.932 134.841 180.458 116.136 164.581 99.8814C156.392 91.4967 145.959 88.3983 138.647 87.2734C133.984 86.5584 130.215 86.5727 128.381 86.6442C126.295 86.5631 122.06 86.5631 116.901 87.4688C109.955 88.6891 100.023 91.8351 92.1584 99.8814C76.281 116.136 70.8027 134.841 78.1722 147.601L128.362 146.271Z" fill="black"/>
<path d="M76.5144 123.696C76.5144 123.696 81.502 118.543 87.8282 120.45C93.9638 122.304 98.0129 130.074 97.3889 134.374C97.065 136.614 93.778 137.844 90.2958 135.165C86.8135 132.486 76.5144 123.696 76.5144 123.696Z" fill="#545454"/>
<path d="M94.2353 137.019C92.9158 137.019 91.4533 136.471 90.0957 135.427C86.642 132.777 76.4048 124.03 76.3048 123.944C76.2381 123.887 76.1952 123.801 76.1905 123.715C76.1857 123.629 76.219 123.539 76.281 123.477C76.3334 123.424 81.4782 118.205 87.9187 120.15C94.4021 122.109 98.3226 130.165 97.7033 134.431C97.5556 135.46 96.8649 136.299 95.8121 136.728C95.3214 136.919 94.7927 137.019 94.2353 137.019ZM76.9955 123.687C78.6533 125.098 87.3661 132.519 90.4863 134.917C92.2346 136.256 94.1353 136.709 95.5692 136.128C96.4028 135.789 96.9506 135.136 97.065 134.335C97.6557 130.269 93.7113 122.571 87.7329 120.765C82.4547 119.168 78.0674 122.714 76.9955 123.687Z" fill="black"/>
<path d="M180.215 123.696C180.215 123.696 175.228 118.543 168.901 120.45C162.766 122.304 158.717 130.074 159.341 134.374C159.665 136.614 162.952 137.844 166.434 135.165C169.916 132.486 180.215 123.696 180.215 123.696Z" fill="#545454"/>
<path d="M162.494 137.019C161.937 137.019 161.403 136.924 160.917 136.724C159.865 136.295 159.174 135.46 159.026 134.426C158.407 130.155 162.332 122.099 168.811 120.145C175.247 118.2 180.401 123.42 180.449 123.472C180.511 123.534 180.544 123.625 180.539 123.71C180.534 123.796 180.496 123.882 180.425 123.939C180.32 124.03 170.083 132.772 166.634 135.422C165.276 136.471 163.819 137.019 162.494 137.019ZM171.731 120.355C170.855 120.355 169.94 120.474 168.992 120.76C163.013 122.566 159.069 130.26 159.66 134.331C159.774 135.132 160.322 135.78 161.156 136.123C162.594 136.709 164.49 136.256 166.239 134.912C169.359 132.515 178.076 125.098 179.729 123.682C178.853 122.886 175.742 120.355 171.731 120.355Z" fill="black"/>
<path d="M129.744 95.1671C129.263 95.2005 128.753 95.2148 128.22 95.2148C127.796 95.2148 127.391 95.2053 127 95.1862C116.367 94.6523 116.849 87.1495 116.849 87.1495C122.041 86.239 126.295 86.239 128.372 86.32C130.287 86.2438 134.055 86.239 138.7 86.954C138.695 86.954 139.981 94.4902 129.744 95.1671Z" fill="#545454"/>
<path d="M134.374 81.6582V89.5615C134.374 89.5615 132.516 92.1164 127.796 92.1164C123.075 92.1164 121.207 89.5615 121.207 89.5615V81.6582H134.374Z" fill="white"/>
<path d="M127.796 92.4406C122.965 92.4406 121.031 89.8618 120.95 89.7522C120.912 89.695 120.888 89.6282 120.888 89.5615V81.6582C120.888 81.4819 121.031 81.3341 121.212 81.3341H134.379C134.555 81.3341 134.703 81.4771 134.703 81.6582V89.5615C134.703 89.6282 134.679 89.695 134.641 89.7522C134.555 89.8618 132.626 92.4406 127.796 92.4406ZM121.536 89.4471C121.889 89.857 123.77 91.7971 127.8 91.7971C131.845 91.7971 133.707 89.8618 134.055 89.4471V81.9824H121.536V89.4471Z" fill="black"/>
<path d="M140.729 69.3171C140.729 78.6885 134.798 85.8053 127.486 85.8053C120.174 85.8053 114.243 78.6933 114.243 69.3171C114.243 59.9409 120.174 50.8937 127.486 50.8937C134.798 50.8937 140.729 59.9457 140.729 69.3171Z" fill="white"/>
<path d="M127.486 86.1247C119.878 86.1247 113.919 78.741 113.919 69.3172C113.919 59.3308 120.259 50.5696 127.486 50.5696C134.712 50.5696 141.053 59.3308 141.053 69.3172C141.048 78.741 135.089 86.1247 127.486 86.1247ZM127.486 51.2179C120.602 51.2179 114.567 59.674 114.567 69.3172C114.567 78.3787 120.24 85.4812 127.486 85.4812C134.731 85.4812 140.405 78.3835 140.405 69.3172C140.405 59.674 134.365 51.2179 127.486 51.2179Z" fill="black"/>
<path d="M143.33 65.6896C143.244 65.9327 143.154 66.1568 143.068 66.357C142.796 66.9957 142.534 67.4629 142.325 67.7775C142.063 68.1779 141.887 68.3495 141.887 68.3495C141.782 68.4019 141.677 68.4496 141.572 68.4972C141.405 68.5783 141.239 68.6498 141.072 68.7213C140.953 68.7737 140.834 68.8214 140.715 68.8643C140.61 68.9072 140.5 68.9501 140.396 68.9882C128.005 73.5977 119.192 58.7207 119.192 58.7207C119.13 65.4513 115.905 69.3696 114.691 70.6089C114.51 70.7948 114.371 70.9188 114.3 70.9855C114.262 71.0236 114.238 71.0427 114.238 71.0427C114 70.7614 113.776 70.4754 113.557 70.1942C113.509 70.1322 113.462 70.0703 113.419 70.0083C113.157 69.6603 112.914 69.3076 112.685 68.9596C112.309 68.3924 111.975 67.8251 111.68 67.2579C111.413 66.7526 111.18 66.2473 110.98 65.7421C110.332 64.1404 109.975 62.5579 109.865 61.0182C109.222 51.8518 117.387 44.2012 125.004 43.4576C135.303 42.4518 137.318 47.6428 137.318 47.6428C137.318 47.6428 137.323 47.6428 137.337 47.638C138.69 47.271 144.292 48.7105 144.449 57.1905C144.526 61.2232 143.954 63.945 143.33 65.6896Z" fill="#EA0033"/>
<path d="M113.076 72.182L111.351 71.7577L111.88 69.5936C111.68 68.0826 110.58 58.1344 115.824 52.0187C118.473 48.9298 122.279 47.3663 127.143 47.3663C132.621 47.3663 136.785 49.0967 139.514 52.5049C144.907 59.2307 142.711 70.0226 142.439 71.2286L140.705 70.8425C140.953 69.7176 143.001 59.6931 138.128 53.6155C135.751 50.6458 132.05 49.1443 127.138 49.1443C122.822 49.1443 119.469 50.4981 117.173 53.1722C112.137 59.0305 113.643 69.3982 113.657 69.5031L113.685 69.6747L113.076 72.182Z" fill="white"/>
<path d="M113.076 72.506C113.052 72.506 113.023 72.5013 113 72.4965L111.275 72.0723C111.194 72.0532 111.118 72.0008 111.075 71.9245C111.032 71.853 111.018 71.7624 111.037 71.6814L111.551 69.5745C111.285 67.5391 110.356 57.896 115.577 51.8088C118.287 48.6485 122.179 47.0469 127.138 47.0469C132.716 47.0469 136.966 48.8153 139.762 52.3046C145.25 59.1496 143.025 70.0798 142.754 71.3048C142.715 71.4812 142.539 71.586 142.368 71.5479L140.634 71.1618C140.548 71.1427 140.476 71.0903 140.434 71.0188C140.386 70.9473 140.372 70.8615 140.391 70.7757C140.638 69.6698 142.654 59.7788 137.876 53.8204C135.56 50.9318 131.949 49.4684 127.138 49.4684C122.918 49.4684 119.65 50.784 117.415 53.3819C112.48 59.1258 113.962 69.3504 113.976 69.4553L114.005 69.6269C114.009 69.6698 114.009 69.7127 114 69.7508L113.385 72.2534C113.352 72.4059 113.223 72.506 113.076 72.506ZM111.742 71.5241L112.838 71.791L113.357 69.665L113.338 69.5554C113.323 69.4505 111.799 58.9351 116.925 52.9624C119.288 50.2168 122.722 48.8201 127.138 48.8201C132.154 48.8201 135.937 50.3645 138.38 53.4152C143.039 59.2259 141.505 68.521 141.091 70.5993L142.191 70.8424C142.625 68.6974 144.24 58.9161 139.262 52.705C136.594 49.3778 132.516 47.6904 127.138 47.6904C122.374 47.6904 118.649 49.2157 116.063 52.2283C110.861 58.2916 112.042 68.4162 112.194 69.5459C112.199 69.584 112.199 69.6269 112.19 69.665L111.742 71.5241Z" fill="black"/>
<path d="M131.021 66.9432C130.792 67.3341 133.636 68.5115 134.041 68.1063C134.45 67.7011 131.344 66.3903 131.021 66.9432Z" fill="black"/>
<path d="M131.826 72.4536C131.535 72.4536 131.302 72.22 131.302 71.9293V70.6518C131.302 70.361 131.535 70.1274 131.826 70.1274C132.116 70.1274 132.35 70.361 132.35 70.6518V71.9293C132.35 72.22 132.111 72.4536 131.826 72.4536Z" fill="black"/>
<path d="M123.827 72.4536C123.537 72.4536 123.303 72.22 123.303 71.9293V70.6518C123.303 70.361 123.537 70.1274 123.827 70.1274C124.118 70.1274 124.351 70.361 124.351 70.6518V71.9293C124.347 72.22 124.113 72.4536 123.827 72.4536Z" fill="black"/>
<path d="M132.545 72.7777C132.488 72.7777 132.435 72.7634 132.383 72.7348C131.754 72.363 131.311 72.7062 131.306 72.711C131.168 72.8206 130.963 72.7968 130.854 72.6585C130.744 72.5203 130.768 72.3153 130.906 72.2057C130.94 72.1819 131.707 71.5908 132.712 72.1819C132.864 72.2724 132.917 72.4679 132.826 72.6252C132.764 72.7205 132.655 72.7777 132.545 72.7777Z" fill="black"/>
<path d="M126.438 80.0423C126.271 80.0423 126.133 79.9136 126.119 79.7468C126.104 79.5704 126.233 79.4131 126.409 79.394C126.447 79.3893 130.196 79.0222 132.097 76.2766C132.197 76.1288 132.397 76.0907 132.545 76.1955C132.693 76.2956 132.726 76.4959 132.626 76.6436C130.549 79.6419 126.633 80.0232 126.466 80.0375C126.457 80.0423 126.447 80.0423 126.438 80.0423Z" fill="black"/>
<path d="M124.628 66.9432C124.856 67.3341 122.012 68.5115 121.608 68.1063C121.198 67.7011 124.309 66.3903 124.628 66.9432Z" fill="black"/>
<path d="M123.103 72.7777C122.994 72.7777 122.884 72.7205 122.827 72.6204C122.736 72.4679 122.789 72.2677 122.941 72.1771C123.946 71.586 124.713 72.1771 124.747 72.2009C124.885 72.3106 124.909 72.5155 124.799 72.6538C124.69 72.792 124.49 72.8206 124.347 72.711C124.323 72.6919 123.88 72.3773 123.265 72.7348C123.218 72.7634 123.16 72.7777 123.103 72.7777Z" fill="black"/>
<path d="M127.591 74.7846C127.162 74.7846 126.828 74.6511 126.59 74.3937C126.119 73.8789 126.257 73.0829 126.276 72.9971C126.309 72.8207 126.486 72.7111 126.657 72.7444C126.833 72.7778 126.943 72.9494 126.909 73.121C126.881 73.2735 126.852 73.7264 127.067 73.96C127.2 74.1077 127.438 74.1649 127.762 74.1316C128.41 74.0648 128.696 73.6835 128.686 73.3546C128.682 73.264 128.643 72.9685 128.248 72.9542C128.072 72.9494 127.929 72.7969 127.938 72.6205C127.943 72.4441 128.086 72.3107 128.262 72.3107C128.267 72.3107 128.272 72.3107 128.272 72.3107C128.877 72.3297 129.315 72.754 129.334 73.3355C129.353 73.9695 128.848 74.6702 127.834 74.7751C127.748 74.7798 127.667 74.7846 127.591 74.7846Z" fill="black"/>
<path d="M86.742 120.483C96.0455 123.482 95.0261 143.678 89.6098 147.93H69.6309C69.6309 147.93 68.7686 136.047 72.3319 129.23C75.8903 122.404 82.1737 119.01 86.742 120.483Z" fill="white"/>
<path d="M89.6098 148.25H69.6309C69.4594 148.25 69.3212 148.121 69.3069 147.949C69.2736 147.458 68.478 135.899 72.0413 129.078C75.5283 122.409 81.8878 118.577 86.8421 120.173C90.2815 121.284 92.6919 124.792 93.6303 130.06C94.888 137.129 93.1016 145.594 89.8051 148.178C89.7479 148.226 89.6812 148.25 89.6098 148.25ZM69.931 147.606H89.4955C92.5728 145.07 94.2115 136.981 92.9968 130.179C92.1012 125.155 89.8432 121.823 86.642 120.793C81.9831 119.292 75.9523 122.986 72.6129 129.378C69.4451 135.437 69.8309 145.723 69.931 147.606Z" fill="black"/>
<path d="M76.0904 147.925H87.3042C88.1711 150.142 92.4061 150.28 96.5934 147.925C96.6172 147.911 96.641 147.902 96.6648 147.887C97.9462 147.163 98.7275 145.79 98.7275 144.317V143.864C98.7275 142.391 97.9462 141.023 96.6648 140.299C96.6553 140.294 96.6458 140.289 96.6362 140.284C95.7073 139.76 92.8015 140.461 91.2342 140.051C89.6908 139.65 87.1041 137.796 86.3276 137.005C86.3181 136.995 86.3085 136.981 86.2942 136.971C85.5654 136.199 83.1216 134.03 79.6251 135.937C77.3242 137.191 76.4334 143.664 76.0904 147.925Z" fill="white"/>
<path d="M90.7912 149.97C90.0623 149.97 89.3907 149.87 88.8047 149.661C87.9997 149.375 87.4137 148.888 87.0946 148.254H76.0904C75.9999 148.254 75.9142 148.216 75.8522 148.149C75.7903 148.083 75.7617 147.992 75.7665 147.906C76.1571 143.025 77.1146 136.938 79.4727 135.656C83.0502 133.702 85.5988 135.77 86.5277 136.752C87.3327 137.577 89.8766 139.369 91.3104 139.741C92.0154 139.922 93.0444 139.865 94.0353 139.812C95.2119 139.746 96.2266 139.689 96.7887 140.008C98.1892 140.804 99.0467 142.277 99.0467 143.874V144.327C99.0467 145.923 98.194 147.396 96.822 148.178L96.7506 148.216C94.7069 149.355 92.5776 149.97 90.7912 149.97ZM76.4429 147.606H87.3042C87.4375 147.606 87.5566 147.687 87.6043 147.811C87.8234 148.378 88.2998 148.793 89.0191 149.05C90.8436 149.703 93.7542 149.151 96.4362 147.644L96.5076 147.606C97.6795 146.944 98.4036 145.68 98.4036 144.317V143.864C98.4036 142.501 97.6747 141.242 96.5029 140.575C96.0741 140.337 95.0595 140.394 94.0734 140.446C93.0301 140.504 91.9535 140.566 91.1485 140.356C89.524 139.936 86.9183 138.063 86.0942 137.224C86.0942 137.224 86.0608 137.186 86.0561 137.186C85.232 136.314 82.9644 134.478 79.7775 136.214C78.1722 137.095 76.986 141.133 76.4429 147.606Z" fill="black"/>
<path d="M90.7912 149.97C90.0623 149.97 89.3907 149.87 88.8047 149.66C87.9139 149.341 87.2946 148.783 87.0041 148.045C86.7611 147.425 86.7563 146.696 86.9993 145.885C88.4141 141.104 93.3541 141.3 93.4017 141.295C93.578 141.304 93.7161 141.457 93.7066 141.633C93.697 141.81 93.5494 141.934 93.3683 141.938C93.1826 141.929 88.8857 141.781 87.6186 146.066C87.4185 146.738 87.4137 147.325 87.6043 147.806C87.8234 148.373 88.3045 148.793 89.0191 149.05C90.8436 149.703 93.7542 149.15 96.4362 147.644L96.622 147.539C96.7744 147.449 96.9745 147.496 97.065 147.649C97.1555 147.801 97.1078 148.002 96.9554 148.092C96.9125 148.121 96.8649 148.145 96.822 148.169L96.7553 148.207C94.7069 149.355 92.5776 149.97 90.7912 149.97Z" fill="black"/>
<path d="M170.002 120.483C160.698 123.482 161.718 143.678 167.134 147.93H187.113C187.113 147.93 187.975 136.047 184.412 129.23C180.854 122.404 174.57 119.01 170.002 120.483Z" fill="white"/>
<path d="M187.113 148.25H167.134C167.063 148.25 166.991 148.226 166.934 148.183C163.638 145.599 161.851 137.129 163.109 130.064C164.047 124.797 166.458 121.284 169.897 120.178C174.851 118.581 181.211 122.409 184.698 129.083C188.261 135.904 187.47 147.468 187.432 147.954C187.423 148.121 187.285 148.25 187.113 148.25ZM167.248 147.606H186.813C186.913 145.723 187.299 135.441 184.131 129.378C180.792 122.981 174.756 119.292 170.102 120.793C166.901 121.828 164.643 125.16 163.747 130.179C162.532 136.976 164.171 145.065 167.248 147.606Z" fill="black"/>
<path d="M180.649 147.925H169.435C168.568 150.142 164.333 150.28 160.146 147.925C160.122 147.911 160.098 147.902 160.074 147.887C158.793 147.163 158.012 145.79 158.012 144.317V143.864C158.012 142.391 158.793 141.023 160.074 140.299C160.084 140.294 160.093 140.289 160.103 140.284C161.032 139.76 163.938 140.461 165.505 140.051C167.048 139.65 169.635 137.796 170.412 137.005C170.421 136.995 170.431 136.981 170.445 136.971C171.174 136.199 173.617 134.03 177.114 135.937C179.42 137.191 180.31 143.664 180.649 147.925Z" fill="white"/>
<path d="M165.948 149.97C164.162 149.97 162.032 149.355 159.989 148.207L159.922 148.169C158.545 147.392 157.692 145.914 157.692 144.317V143.864C157.692 142.267 158.545 140.794 159.917 140.017C160.513 139.684 161.527 139.741 162.699 139.808C163.69 139.865 164.719 139.922 165.424 139.736C166.863 139.364 169.402 137.567 170.178 136.776L170.211 136.738C171.136 135.765 173.684 133.697 177.262 135.646C179.62 136.933 180.577 143.016 180.963 147.897C180.973 147.987 180.939 148.073 180.877 148.14C180.815 148.207 180.73 148.245 180.639 148.245H169.635C169.316 148.879 168.73 149.365 167.925 149.651C167.353 149.87 166.682 149.97 165.948 149.97ZM161.38 140.399C160.894 140.399 160.484 140.437 160.265 140.561C159.064 141.242 158.34 142.501 158.34 143.864V144.317C158.34 145.68 159.069 146.939 160.241 147.606L160.312 147.644C162.99 149.15 165.9 149.699 167.725 149.046C168.444 148.788 168.92 148.369 169.14 147.806C169.187 147.682 169.306 147.601 169.44 147.601H180.301C179.758 141.133 178.572 137.095 176.962 136.214C173.775 134.478 171.507 136.314 170.683 137.186L170.65 137.219C169.826 138.063 167.22 139.932 165.595 140.356C164.79 140.566 163.714 140.504 162.671 140.446C162.227 140.423 161.78 140.399 161.38 140.399Z" fill="black"/>
<path d="M165.948 149.97C164.162 149.97 162.032 149.355 159.989 148.207L159.784 148.087C159.631 147.997 159.584 147.797 159.674 147.644C159.765 147.492 159.965 147.444 160.117 147.535L160.308 147.644C162.985 149.146 165.896 149.699 167.72 149.046C168.439 148.788 168.916 148.369 169.135 147.806C169.325 147.32 169.321 146.734 169.121 146.066C167.849 141.772 163.418 141.934 163.371 141.938C163.199 141.943 163.042 141.81 163.033 141.633C163.023 141.457 163.161 141.304 163.337 141.295C163.38 141.295 168.32 141.104 169.74 145.885C169.983 146.7 169.978 147.425 169.735 148.045C169.449 148.779 168.825 149.336 167.934 149.656C167.353 149.87 166.682 149.97 165.948 149.97Z" fill="black"/>
<path d="M184.845 148.378C184.845 148.378 187.208 149.694 188.151 146.557C189.238 142.939 187.427 135.823 185.489 135.437C183.555 135.05 182.468 137.839 182.468 137.839L184.845 148.378Z" fill="white"/>
<path d="M185.96 148.974C185.265 148.974 184.717 148.674 184.684 148.659C184.603 148.617 184.545 148.54 184.526 148.45L182.149 137.91C182.135 137.848 182.14 137.782 182.164 137.725C182.211 137.601 183.369 134.688 185.546 135.122C186.06 135.222 186.556 135.67 187.018 136.442C188.404 138.754 189.333 143.721 188.452 146.653C188.113 147.782 187.556 148.507 186.794 148.817C186.513 148.931 186.227 148.974 185.96 148.974ZM185.122 148.154C185.374 148.259 185.979 148.454 186.56 148.216C187.127 147.983 187.561 147.396 187.837 146.467C188.656 143.735 187.761 138.931 186.465 136.776C186.108 136.18 185.736 135.823 185.422 135.756C183.95 135.46 182.997 137.429 182.802 137.872L185.122 148.154Z" fill="black"/>
<path d="M176.314 137.257C176.314 137.257 177.59 134.641 181.02 134.874C184.45 135.108 185.765 147.268 185.317 148.779C184.869 150.29 180.091 151.267 179.453 148.416C178.81 145.571 176.314 137.257 176.314 137.257Z" fill="white"/>
<path d="M182.173 150.561C182.121 150.561 182.068 150.561 182.016 150.561C180.468 150.509 179.42 149.751 179.139 148.488C178.51 145.685 176.033 137.434 176.009 137.353C175.985 137.276 175.99 137.191 176.028 137.119C176.042 137.091 177.438 134.316 181.044 134.555C181.735 134.602 182.383 135.046 182.959 135.88C185.208 139.116 186.032 147.52 185.627 148.874C185.312 149.908 183.626 150.561 182.173 150.561ZM176.661 137.296C176.981 138.363 179.177 145.718 179.763 148.35C180.058 149.656 181.311 149.894 182.035 149.918C183.507 149.966 184.822 149.298 185.003 148.688C185.308 147.654 184.564 139.336 182.421 136.247C181.959 135.584 181.482 135.232 180.992 135.198C178.191 135.012 176.933 136.824 176.661 137.296Z" fill="black"/>
<path d="M180.006 147.925C179.958 148.397 179.863 148.793 179.705 149.084C178.481 151.4 173.456 151.338 172.293 147.925C172.274 147.868 172.26 147.811 172.241 147.754C171.512 145.256 170.783 139.974 170.412 137C170.421 136.99 170.431 136.976 170.445 136.967C171.174 136.194 173.617 134.026 177.114 135.932C178.267 137.3 180.353 144.57 180.006 147.925Z" fill="white"/>
<path d="M176.476 151C176.333 151 176.19 150.995 176.042 150.981C174.527 150.862 172.67 150.023 171.988 148.025L171.931 147.844C171.521 146.438 171.064 144.021 170.578 140.666C170.554 140.489 170.674 140.327 170.85 140.299C171.031 140.27 171.188 140.394 171.217 140.57C171.702 143.897 172.15 146.286 172.55 147.658L172.603 147.825C173.089 149.26 174.399 150.199 176.095 150.337C177.576 150.457 178.915 149.889 179.42 148.931C179.548 148.688 179.639 148.335 179.682 147.892C180.01 144.708 178.033 137.629 176.9 136.185C173.741 134.502 171.498 136.323 170.674 137.191L170.64 137.224C170.516 137.353 170.311 137.358 170.183 137.234C170.054 137.11 170.049 136.905 170.173 136.776L170.407 137L170.183 136.766C171.136 135.765 173.679 133.697 177.262 135.646C177.295 135.665 177.328 135.689 177.352 135.723C178.567 137.162 180.673 144.541 180.32 147.959C180.268 148.488 180.153 148.917 179.987 149.231C179.42 150.318 178.038 151 176.476 151Z" fill="black"/>
<path d="M71.8984 148.378C71.8984 148.378 69.5356 149.694 68.5924 146.557C67.5063 142.939 69.3165 135.823 71.2553 135.437C73.1893 135.05 74.2755 137.839 74.2755 137.839L71.8984 148.378Z" fill="white"/>
<path d="M70.7837 148.974C70.5169 148.974 70.2311 148.931 69.9453 148.817C69.1831 148.507 68.6257 147.778 68.2875 146.653C67.4062 143.721 68.3351 138.754 69.7214 136.442C70.1835 135.67 70.6789 135.227 71.1934 135.122C73.3704 134.683 74.5279 137.601 74.5756 137.725C74.5994 137.787 74.6042 137.848 74.5899 137.91L72.2128 148.45C72.1937 148.54 72.1366 148.617 72.0556 148.659C72.027 148.679 71.4792 148.974 70.7837 148.974ZM71.6126 135.723C71.5173 135.723 71.4173 135.732 71.3172 135.751C70.9981 135.813 70.6265 136.175 70.274 136.771C68.983 138.926 68.0827 143.731 68.902 146.462C69.1831 147.391 69.6118 147.978 70.1787 148.211C70.7646 148.45 71.3649 148.254 71.6173 148.149L73.9325 137.868C73.7562 137.458 72.9131 135.723 71.6126 135.723Z" fill="black"/>
<path d="M80.4302 137.257C80.4302 137.257 79.1535 134.641 75.7236 134.874C72.2985 135.108 70.979 147.268 71.4268 148.779C71.8746 150.29 76.6526 151.267 77.2909 148.416C77.934 145.571 80.4302 137.257 80.4302 137.257Z" fill="white"/>
<path d="M74.5708 150.561C73.1179 150.561 71.4315 149.904 71.1219 148.869C70.7217 147.516 71.5411 139.117 73.7896 135.875C74.366 135.041 75.0138 134.598 75.7046 134.55C79.3154 134.307 80.7064 137.086 80.7207 137.114C80.7588 137.186 80.7636 137.272 80.7398 137.348C80.716 137.429 78.2388 145.68 77.61 148.483C77.3242 149.746 76.2762 150.504 74.7328 150.557C74.6756 150.561 74.6232 150.561 74.5708 150.561ZM76.1524 135.184C76.019 135.184 75.8856 135.189 75.7474 135.198C75.2615 135.232 74.7804 135.584 74.3183 136.247C72.1747 139.331 71.4315 147.654 71.7364 148.688C71.9174 149.298 73.2465 149.961 74.7042 149.918C75.4283 149.894 76.6811 149.656 76.9765 148.35C77.5672 145.718 79.7585 138.363 80.0776 137.296C79.8204 136.848 78.6819 135.184 76.1524 135.184Z" fill="black"/>
<path d="M76.7383 147.925C76.7859 148.397 76.8812 148.793 77.0384 149.084C78.2627 151.4 83.2884 151.338 84.4507 147.925C84.4698 147.868 84.4841 147.811 84.5031 147.754C85.232 145.256 85.9608 139.974 86.3324 137C86.3228 136.99 86.3133 136.976 86.299 136.967C85.5702 136.194 83.1264 134.026 79.6299 135.932C78.477 137.3 76.3905 144.57 76.7383 147.925Z" fill="white"/>
<path d="M80.2634 151C78.7009 151 77.3242 150.318 76.7478 149.236C76.5811 148.917 76.4668 148.488 76.4144 147.959C76.0619 144.541 78.1674 137.162 79.3822 135.723C79.406 135.694 79.4393 135.665 79.4727 135.646C83.0502 133.697 85.5988 135.761 86.5277 136.743C86.6515 136.871 86.6611 137.091 86.5325 137.215C86.4038 137.339 86.2133 137.353 86.0942 137.219C86.0942 137.219 86.0799 137.2 86.0751 137.2C85.2367 136.318 82.993 134.493 79.8347 136.18C78.7009 137.625 76.724 144.703 77.0527 147.887C77.1003 148.335 77.1861 148.683 77.3147 148.926C77.8244 149.885 79.163 150.447 80.6398 150.333C82.3356 150.199 83.6457 149.255 84.1316 147.816L84.184 147.649C84.5603 146.357 84.9843 144.15 85.4368 141.095C85.4606 140.918 85.6273 140.794 85.8036 140.823C85.9799 140.847 86.1037 141.014 86.0751 141.19C85.6178 144.269 85.1891 146.505 84.8032 147.835L84.7461 148.016C84.0649 150.018 82.207 150.857 80.6922 150.976C80.554 150.995 80.4063 151 80.2634 151Z" fill="black"/>
<path d="M137.318 47.638C130.349 42.2135 113.462 42.2897 109.865 61.0135C109.222 51.847 117.387 44.1964 125.004 43.4528C135.308 42.447 137.318 47.638 137.318 47.638Z" fill="white"/>
<path d="M114.243 71.362C114.152 71.362 114.062 71.3239 113.995 71.2476C113.757 70.9616 113.524 70.6709 113.304 70.3849L113.166 70.199C112.885 69.8224 112.642 69.4744 112.418 69.1312C112.042 68.564 111.699 67.9777 111.399 67.4009C111.132 66.8861 110.889 66.3665 110.684 65.8565C110.041 64.2787 109.66 62.658 109.546 61.0325C108.893 51.7135 117.153 43.8913 124.975 43.1287C134.227 42.223 136.951 46.208 137.504 47.2709C138.385 47.1661 139.857 47.5474 141.167 48.5294C142.763 49.7258 144.683 52.1998 144.773 57.1762C144.835 60.6035 144.454 63.5065 143.635 65.7945C143.544 66.0424 143.454 66.2712 143.368 66.4809C143.13 67.0434 142.873 67.5391 142.596 67.9538C142.325 68.3685 142.134 68.5592 142.115 68.5783C142.091 68.6021 142.063 68.6212 142.034 68.6355C141.925 68.6879 141.82 68.7403 141.71 68.788C141.548 68.8643 141.377 68.9405 141.205 69.012C141.086 69.0645 140.962 69.1121 140.843 69.1598C140.743 69.2027 140.629 69.2456 140.519 69.2837C129.801 73.2687 121.655 62.882 119.492 59.7407C119.14 65.8755 116.225 69.5078 114.934 70.8282C114.743 71.0236 114.6 71.1523 114.524 71.2238C114.481 71.2619 114.452 71.2858 114.452 71.2858C114.386 71.3382 114.314 71.362 114.243 71.362ZM127.519 43.6482C126.752 43.6482 125.928 43.6864 125.037 43.7769C117.511 44.511 109.56 52.0329 110.189 60.9944C110.298 62.5483 110.665 64.1071 111.28 65.6181C111.48 66.1091 111.709 66.6096 111.971 67.1101C112.261 67.6726 112.595 68.2351 112.957 68.7832C113.176 69.1169 113.409 69.4553 113.681 69.8176L113.819 70.0035C113.967 70.1942 114.114 70.3849 114.271 70.5803C114.329 70.5279 114.391 70.4611 114.462 70.3896C115.767 69.0549 118.811 65.2463 118.873 58.7207C118.873 58.5777 118.973 58.449 119.111 58.4108C119.249 58.3727 119.397 58.4346 119.473 58.5586C119.559 58.7064 128.296 73.1543 140.286 68.6879C140.391 68.6498 140.491 68.6069 140.596 68.5687C140.715 68.5211 140.829 68.4734 140.943 68.4257C141.11 68.3542 141.272 68.2827 141.434 68.2065C141.524 68.1683 141.61 68.1254 141.691 68.0873C141.748 68.0253 141.882 67.868 142.053 67.6059C142.301 67.2293 142.549 66.7574 142.768 66.233C142.854 66.0328 142.939 65.8183 143.025 65.58C143.821 63.3635 144.187 60.5415 144.125 57.1905C144.04 52.4762 142.258 50.1644 140.777 49.0489C139.29 47.9288 137.876 47.8191 137.423 47.9431C137.266 47.986 137.075 47.9097 137.018 47.7524C136.999 47.7095 135.289 43.6482 127.519 43.6482Z" fill="black"/>
<path d="M141.772 75.9762L140.924 75.9L141.834 65.5562L144.497 65.7897C145.669 65.8946 146.536 66.929 146.431 68.1016L146.055 72.3869C145.864 74.5605 143.944 76.1669 141.772 75.9762Z" fill="white"/>
<path d="M141.772 75.9762L141.091 75.9143C140.538 75.8666 140.119 75.4042 140.124 74.8465L140.148 71.2476C140.162 69.2265 140.748 67.2531 141.839 65.5562L142.687 65.6324C142.682 65.6324 141.748 70.0607 141.772 75.9762Z" fill="black"/>
<path d="M113.104 75.9715L113.952 75.8952L113.014 65.5514L110.351 65.7945C109.179 65.8994 108.317 66.9385 108.422 68.1111L108.807 72.3964C109.012 74.5653 110.932 76.1669 113.104 75.9715Z" fill="white"/>
<path d="M142.125 76.3147C141.996 76.3147 141.872 76.3099 141.744 76.2956L140.896 76.2194C140.81 76.2098 140.734 76.1717 140.677 76.105C140.619 76.0382 140.596 75.9524 140.6 75.8666L141.51 65.5228C141.52 65.437 141.558 65.3607 141.625 65.3035C141.691 65.2463 141.777 65.2225 141.863 65.2273L144.526 65.4608C145.178 65.518 145.769 65.8279 146.188 66.3284C146.607 66.8289 146.807 67.4676 146.75 68.1207L146.374 72.406C146.274 73.5452 145.736 74.5749 144.864 75.3089C144.087 75.9667 143.125 76.3147 142.125 76.3147ZM141.272 75.6092L141.801 75.6569C143.787 75.8285 145.555 74.3556 145.731 72.3583L146.107 68.073C146.15 67.5916 146.002 67.1244 145.693 66.7526C145.383 66.3808 144.945 66.1568 144.464 66.1139L142.125 65.9089L141.272 75.6092Z" fill="black"/>
<path d="M112.742 76.3099C111.747 76.3099 110.789 75.9667 110.013 75.3185C109.136 74.5892 108.598 73.5595 108.493 72.4203L108.107 68.135C108.05 67.4819 108.245 66.8432 108.665 66.3427C109.084 65.8374 109.674 65.5276 110.327 65.4704L112.99 65.2273C113.171 65.2082 113.323 65.3417 113.342 65.5181L114.281 75.8619C114.29 75.9477 114.262 76.0335 114.209 76.1002C114.152 76.1669 114.076 76.2051 113.99 76.2146L113.142 76.2909C113.004 76.3052 112.871 76.3099 112.742 76.3099ZM112.728 65.9042L110.389 66.1187C109.908 66.1616 109.474 66.3904 109.165 66.7622C108.855 67.134 108.707 67.6011 108.755 68.0826L109.141 72.3679C109.227 73.3355 109.689 74.2078 110.432 74.8275C111.175 75.4472 112.113 75.7427 113.08 75.6521L113.609 75.6045L112.728 65.9042Z" fill="black"/>
<path d="M113.104 75.9715L113.786 75.9095C114.338 75.8618 114.757 75.3947 114.753 74.8418L114.719 71.2429C114.7 69.2218 114.109 67.2484 113.014 65.5514L112.166 65.6277C112.171 65.6324 113.114 70.056 113.104 75.9715Z" fill="black"/>
<path d="M141.772 76.3004C141.763 76.3004 141.753 76.3004 141.744 76.3004L141.062 76.2384C140.348 76.1764 139.795 75.5663 139.8 74.8465L139.824 71.2476C139.838 69.1645 140.438 67.1339 141.563 65.3798C141.629 65.2797 141.744 65.2225 141.863 65.232L142.711 65.3083C142.801 65.3178 142.887 65.3655 142.939 65.437C142.996 65.5132 143.016 65.6038 142.996 65.6944C142.987 65.7373 142.072 70.1608 142.091 75.9714C142.091 76.062 142.053 76.1478 141.987 76.2098C141.929 76.267 141.853 76.3004 141.772 76.3004ZM142.001 65.8946C141.01 67.5057 140.481 69.3552 140.467 71.2524L140.443 74.8513C140.443 75.2326 140.738 75.5615 141.12 75.5949L141.453 75.6235C141.463 70.8567 142.091 67.0672 142.301 65.9232L142.001 65.8946Z" fill="black"/>
<path d="M113.104 76.2956C113.023 76.2956 112.947 76.267 112.885 76.2098C112.818 76.1478 112.78 76.062 112.78 75.9714C112.79 70.1608 111.861 65.742 111.851 65.6991C111.832 65.6086 111.851 65.5132 111.909 65.4417C111.961 65.3655 112.047 65.3178 112.137 65.313L112.985 65.2367C113.095 65.2272 113.219 65.2844 113.285 65.3845C114.414 67.1339 115.019 69.1598 115.043 71.2476L115.076 74.8465C115.081 75.5615 114.529 76.1764 113.819 76.2384L113.138 76.3003C113.123 76.2956 113.114 76.2956 113.104 76.2956ZM112.556 65.9184C112.771 67.0624 113.404 70.852 113.428 75.6187L113.762 75.5901C114.148 75.5567 114.438 75.2374 114.433 74.8465L114.4 71.2476C114.381 69.3504 113.847 67.5057 112.852 65.8946L112.556 65.9184Z" fill="black"/>
<path d="M156.678 145.394H99.7612L95.1452 110.702C95.0261 109.806 95.7216 109.01 96.6267 109.01H159.817C160.722 109.01 161.418 109.806 161.299 110.702L156.678 145.394Z" fill="#545454"/>
<path d="M156.678 145.394H99.7612L95.1452 110.702C95.0261 109.806 95.7216 109.01 96.6267 109.01H159.817C160.722 109.01 161.418 109.806 161.299 110.702L156.678 145.394Z" stroke="black" stroke-width="1.3547" stroke-miterlimit="10" stroke-linecap="round" stroke-linejoin="round"/>
<path d="M156.683 144.231H99.7612V147.925H156.683V144.231Z" fill="white"/>
<path d="M156.683 144.231H99.7612V147.925H156.683V144.231Z" stroke="black" stroke-width="1.3547" stroke-miterlimit="10" stroke-linecap="round" stroke-linejoin="round"/>
<path d="M127 133.782C130.399 133.782 133.155 131.025 133.155 127.624C133.155 124.223 130.399 121.465 127 121.465C123.601 121.465 120.845 124.223 120.845 127.624C120.845 131.025 123.601 133.782 127 133.782Z" fill="white"/>
</g>
<g clip-path="url(#clip1_416_6)">
<path d="M331.176 144.004C331.823 141.205 332.459 138.41 333.169 135.328C334.818 136.342 335.282 137.828 335.105 139.225C334.576 143.36 333.992 147.509 333.01 151.548C332.45 153.864 330.453 154.269 328.712 152.656C325.813 149.965 323.054 147.131 320.238 144.351C320.073 144.191 319.832 144.004 319.809 143.816C319.737 143.193 319.755 142.566 319.731 141.943C320.264 141.94 320.939 141.723 321.314 141.967C322.572 142.786 323.736 143.77 324.931 144.688C325.56 145.174 326.183 145.657 327.34 145.88C326.998 144.727 326.698 143.553 326.295 142.426C318.145 119.389 296.356 104.868 271.868 106.189C268.736 106.357 265.627 106.915 262.502 107.272C261.412 107.395 260.319 107.459 259.226 107.556C259.124 107.315 259.019 107.079 258.917 106.837C259.425 106.348 259.844 105.606 260.445 105.41C262.535 104.711 264.661 104.037 266.824 103.639C288.741 99.6308 311.558 109.982 323.667 129.591C325.977 133.329 327.6 137.494 329.511 141.476C329.909 142.294 330.181 143.173 330.508 144.022C330.738 144.012 330.956 144.011 331.176 144.004Z" fill="#EA0033"/>
</g>
<defs>
<clipPath id="clip0_416_6">
<rect width="254" height="108" fill="white" transform="translate(0 43)"/>
</clipPath>
<clipPath id="clip1_416_6">
<rect width="27.8613" height="86.213" fill="white" transform="translate(254 117.134) rotate(-64.4353)"/>
</clipPath>
</defs>
</svg>
