<svg width="233" height="145" viewBox="0 0 233 145" fill="none" xmlns="http://www.w3.org/2000/svg">
<rect y="76" width="233" height="69" rx="8" fill="#EA0033" fill-opacity="0.1"/>
<path d="M211.935 4.40433V97.8056C211.935 100.09 210.08 101.941 207.79 101.941H117.462C115.172 101.941 113.316 100.09 113.316 97.8056V4.40433C113.316 2.11989 115.172 0.269043 117.462 0.269043H207.794C210.08 0.273058 211.935 2.1239 211.935 4.40433Z" fill="white"/>
<path d="M147.086 102.21H117.462C115.027 102.21 113.047 100.235 113.047 97.8056V41.7704C113.047 41.6219 113.168 41.4974 113.321 41.4974C113.473 41.4974 113.594 41.6179 113.594 41.7704V97.8056C113.594 99.9335 115.329 101.668 117.466 101.668H147.09C147.239 101.668 147.363 101.788 147.363 101.941C147.363 102.093 147.235 102.21 147.086 102.21Z" fill="black"/>
<path d="M211.935 90.4143C211.787 90.4143 211.662 90.2938 211.662 90.1412V4.40428C211.662 2.27642 209.927 0.542004 207.79 0.542004H117.462C115.329 0.542004 113.59 2.2724 113.59 4.40428V12.6989C113.59 12.8475 113.469 12.972 113.316 12.972C113.164 12.972 113.043 12.8515 113.043 12.6989V4.40428C113.043 1.9753 115.023 0 117.462 0H207.794C210.229 0 212.209 1.9753 212.209 4.40428V90.1412C212.209 90.2938 212.084 90.4143 211.935 90.4143Z" fill="black"/>
<path d="M211.935 4.40433V8.49546H113.316V4.40433C113.316 2.11989 115.172 0.269043 117.462 0.269043H207.794C210.08 0.273058 211.935 2.1239 211.935 4.40433Z" fill="#EA0033"/>
<path d="M211.935 8.76842H113.316C113.168 8.76842 113.043 8.64797 113.043 8.49541V4.40428C113.043 1.9753 115.023 0 117.462 0H207.794C210.229 0 212.209 1.9753 212.209 4.40428V8.49541C212.209 8.64797 212.084 8.76842 211.935 8.76842ZM113.59 8.2224H211.662V4.40428C211.662 2.27642 209.927 0.542004 207.79 0.542004H117.462C115.329 0.542004 113.59 2.2724 113.59 4.40428V8.2224Z" fill="black"/>
<path d="M199.551 4.32002C199.551 5.11094 198.907 5.75332 198.114 5.75332C197.321 5.75332 196.677 5.11094 196.677 4.32002C196.677 3.52909 197.321 2.88672 198.114 2.88672C198.911 2.88672 199.551 3.52909 199.551 4.32002Z" fill="white"/>
<path d="M208.53 4.32002C208.53 5.11094 207.886 5.75332 207.094 5.75332C206.301 5.75332 205.657 5.11094 205.657 4.32002C205.657 3.52909 206.301 2.88672 207.094 2.88672C207.89 2.88672 208.53 3.52909 208.53 4.32002Z" fill="black"/>
<path d="M190.571 4.32002C190.571 5.11094 189.927 5.75332 189.134 5.75332C188.341 5.75332 187.697 5.11094 187.697 4.32002C187.697 3.52909 188.341 2.88672 189.134 2.88672C189.927 2.88672 190.571 3.52909 190.571 4.32002Z" fill="white"/>
<path d="M137.072 15.694H96.291C94.4717 15.694 92.9986 17.1634 92.9986 18.9781V37.8158C92.9986 39.6305 94.4717 41.0999 96.291 41.0999H132.825L137.708 47.897C138.319 48.7522 139.31 49.2581 140.36 49.2581V18.9741C140.364 17.1634 138.891 15.694 137.072 15.694ZM105.287 29.6094C104.494 29.6094 103.85 28.967 103.85 28.1761C103.85 27.3852 104.494 26.7428 105.287 26.7428C106.08 26.7428 106.724 27.3852 106.724 28.1761C106.724 28.9711 106.08 29.6094 105.287 29.6094ZM115.925 29.6094C115.132 29.6094 114.488 28.967 114.488 28.1761C114.488 27.3852 115.132 26.7428 115.925 26.7428C116.718 26.7428 117.362 27.3852 117.362 28.1761C117.362 28.9711 116.718 29.6094 115.925 29.6094ZM126.563 29.6094C125.77 29.6094 125.126 28.967 125.126 28.1761C125.126 27.3852 125.77 26.7428 126.563 26.7428C127.355 26.7428 127.999 27.3852 127.999 28.1761C127.999 28.9711 127.355 29.6094 126.563 29.6094Z" fill="#EA0033"/>
<path d="M137.639 46.536C136.5 46.536 135.425 45.986 134.765 45.0626L129.96 38.3778H93.5661C91.5979 38.3778 90 36.784 90 34.8207V15.9831C90 14.0238 91.5979 12.4259 93.5661 12.4259H134.347C136.311 12.4259 137.913 14.0198 137.913 15.9831V46.263C137.913 46.4156 137.788 46.536 137.639 46.536ZM93.5661 12.9719C91.8998 12.9719 90.5474 14.3249 90.5474 15.9831V34.8207C90.5474 36.4828 91.8998 37.8318 93.5661 37.8318H130.104C130.193 37.8318 130.274 37.876 130.326 37.9442L135.208 44.7414C135.715 45.448 136.508 45.8976 137.369 45.9739V15.9831C137.369 14.3209 136.017 12.9719 134.351 12.9719H93.5661ZM123.838 26.8914C122.896 26.8914 122.131 26.1286 122.131 25.1891C122.131 24.2496 122.896 23.4868 123.838 23.4868C124.779 23.4868 125.544 24.2496 125.544 25.1891C125.544 26.1286 124.779 26.8914 123.838 26.8914ZM123.838 24.0288C123.198 24.0288 122.674 24.5507 122.674 25.1891C122.674 25.8274 123.198 26.3494 123.838 26.3494C124.478 26.3494 125.001 25.8274 125.001 25.1891C125.001 24.5507 124.478 24.0288 123.838 24.0288ZM113.2 26.8914C112.258 26.8914 111.493 26.1286 111.493 25.1891C111.493 24.2496 112.258 23.4868 113.2 23.4868C114.142 23.4868 114.906 24.2496 114.906 25.1891C114.906 26.1286 114.142 26.8914 113.2 26.8914ZM113.2 24.0288C112.56 24.0288 112.037 24.5507 112.037 25.1891C112.037 25.8274 112.56 26.3494 113.2 26.3494C113.84 26.3494 114.363 25.8274 114.363 25.1891C114.363 24.5507 113.84 24.0288 113.2 24.0288ZM102.562 26.8914C101.62 26.8914 100.855 26.1286 100.855 25.1891C100.855 24.2496 101.62 23.4868 102.562 23.4868C103.504 23.4868 104.268 24.2496 104.268 25.1891C104.268 26.1286 103.504 26.8914 102.562 26.8914ZM102.562 24.0288C101.922 24.0288 101.399 24.5507 101.399 25.1891C101.399 25.8274 101.922 26.3494 102.562 26.3494C103.202 26.3494 103.725 25.8274 103.725 25.1891C103.725 24.5507 103.202 24.0288 102.562 24.0288Z" fill="black"/>
<path d="M198.045 21.5275C198.045 22.3185 197.401 22.9608 196.608 22.9608C195.816 22.9608 195.172 22.3185 195.172 21.5275C195.172 20.7366 195.816 20.0942 196.608 20.0942C197.401 20.0983 198.045 20.7406 198.045 21.5275Z" fill="#EA0033"/>
<path d="M208.679 21.5275C208.679 22.3185 208.035 22.9608 207.242 22.9608C206.449 22.9608 205.805 22.3185 205.805 21.5275C205.805 20.7366 206.449 20.0942 207.242 20.0942C208.039 20.0983 208.679 20.7406 208.679 21.5275Z" fill="#EA0033"/>
<path d="M219.317 21.5275C219.317 22.3185 218.673 22.9608 217.88 22.9608C217.087 22.9608 216.443 22.3185 216.443 21.5275C216.443 20.7366 217.087 20.0942 217.88 20.0942C218.673 20.0983 219.317 20.7406 219.317 21.5275Z" fill="#EA0033"/>
<path d="M198.045 31.0427C198.045 31.8336 197.401 32.476 196.608 32.476C195.816 32.476 195.172 31.8336 195.172 31.0427C195.172 30.2517 195.816 29.6094 196.608 29.6094C197.401 29.6094 198.045 30.2517 198.045 31.0427Z" fill="#EA0033"/>
<path d="M208.679 31.0427C208.679 31.8336 208.035 32.476 207.242 32.476C206.449 32.476 205.805 31.8336 205.805 31.0427C205.805 30.2517 206.449 29.6094 207.242 29.6094C208.039 29.6094 208.679 30.2517 208.679 31.0427Z" fill="#EA0033"/>
<path d="M219.317 31.0427C219.317 31.8336 218.673 32.476 217.88 32.476C217.087 32.476 216.443 31.8336 216.443 31.0427C216.443 30.2517 217.087 29.6094 217.88 29.6094C218.673 29.6094 219.317 30.2517 219.317 31.0427Z" fill="#EA0033"/>
<path d="M198.045 40.5539C198.045 41.3448 197.401 41.9872 196.608 41.9872C195.816 41.9872 195.172 41.3448 195.172 40.5539C195.172 39.763 195.816 39.1206 196.608 39.1206C197.401 39.1246 198.045 39.763 198.045 40.5539Z" fill="#EA0033"/>
<path d="M208.679 40.5539C208.679 41.3448 208.035 41.9872 207.242 41.9872C206.449 41.9872 205.805 41.3448 205.805 40.5539C205.805 39.763 206.449 39.1206 207.242 39.1206C208.039 39.1246 208.679 39.763 208.679 40.5539Z" fill="#EA0033"/>
<path d="M219.317 40.5539C219.317 41.3448 218.673 41.9872 217.88 41.9872C217.087 41.9872 216.443 41.3448 216.443 40.5539C216.443 39.763 217.087 39.1206 217.88 39.1206C218.673 39.1246 219.317 39.763 219.317 40.5539Z" fill="#EA0033"/>
<path d="M131.083 62.2903C131.083 62.2903 126.816 50.0611 126.812 48.7804C126.808 47.0339 129.283 45.99 130.789 46.8211C132.978 48.0296 136.335 63.0732 136.335 63.0732L131.083 62.2903Z" fill="white"/>
<path d="M136.331 63.3423C136.319 63.3423 136.303 63.3423 136.291 63.3382L131.038 62.5554C130.938 62.5393 130.853 62.471 130.821 62.3747C130.382 61.118 126.538 50.0652 126.534 48.7764C126.534 47.9614 127.005 47.2187 127.826 46.7369C128.804 46.1628 130.044 46.0985 130.917 46.5803C133.147 47.8129 136.25 61.4593 136.597 63.009C136.617 63.0974 136.593 63.1897 136.528 63.2539C136.48 63.3142 136.407 63.3423 136.331 63.3423ZM131.284 62.0455L135.977 62.7441C134.975 58.3398 132.31 47.9734 130.652 47.0581C129.943 46.6646 128.921 46.7248 128.104 47.2066C127.452 47.592 127.082 48.1621 127.082 48.7804C127.086 49.7761 130.064 58.5445 131.284 62.0455Z" fill="black"/>
<path d="M140.364 66.5621C135.087 70.9062 128.543 71.4 125.782 71.396C124.743 66.1326 124.015 61.9491 124.015 61.9491L136.971 59.1467C136.971 59.1427 138.348 62.0776 140.364 66.5621Z" fill="white"/>
<path d="M125.826 71.665C125.677 71.665 125.544 71.5888 125.516 71.4442C124.49 66.237 123.757 62.0334 123.749 61.9893C123.725 61.8447 123.817 61.7082 123.958 61.6761L136.915 58.8738C137.039 58.8456 137.168 58.9099 137.221 59.0263C137.233 59.0544 138.621 62.0134 140.618 66.4498C140.67 66.5622 140.638 66.6947 140.541 66.7709C135.184 71.1792 128.498 71.665 125.826 71.665ZM124.329 62.1579C124.502 63.1295 125.146 66.7549 126.007 71.123C128.704 71.0989 134.959 70.565 140.03 66.4859C138.372 62.8043 137.148 60.1786 136.814 59.4599L124.329 62.1579Z" fill="black"/>
<path d="M124.948 58.6649C124.948 58.6649 125.391 56.806 127.404 56.2158C129.416 55.6297 131.28 59.4478 131.722 61.5516C132.165 63.6553 131.819 65.466 129.859 65.5182C127.895 65.5664 127.355 63.2177 126.965 61.8487C126.567 60.4756 124.948 58.6649 124.948 58.6649Z" fill="white"/>
<path d="M129.795 65.7912C127.786 65.7912 127.15 63.5269 126.768 62.1658L126.699 61.9209C126.329 60.6241 124.763 58.8616 124.747 58.8456C124.687 58.7773 124.667 58.689 124.687 58.6007C124.707 58.5163 125.19 56.5812 127.327 55.9549C127.842 55.8063 128.37 55.8906 128.901 56.2038C130.463 57.1393 131.65 59.8613 131.992 61.4953C132.222 62.5874 132.342 64.0849 131.61 65.0083C131.215 65.5062 130.628 65.7712 129.867 65.7872C129.839 65.7912 129.815 65.7912 129.795 65.7912ZM125.25 58.6007C125.617 59.0302 126.868 60.5478 127.223 61.7724L127.291 62.0213C127.677 63.3984 128.193 65.2894 129.847 65.2492C130.439 65.2332 130.885 65.0405 131.175 64.6751C131.646 64.0849 131.743 62.9969 131.453 61.6118C131.139 60.1183 130.02 57.5166 128.615 56.6775C128.217 56.4407 127.842 56.3764 127.476 56.4808C125.923 56.9345 125.387 58.1871 125.25 58.6007Z" fill="black"/>
<path d="M172.555 75.455L153.264 93.2729V93.2769L152.137 94.6981C150.624 96.2479 147.472 98.4962 141.978 98.3677C133.791 98.175 130.233 91.0968 128.156 82.5051L132.065 79.4739C134.274 74.917 137.639 71.5084 141.439 68.955C152.656 61.4151 167.633 61.3589 167.633 61.3589L172.555 75.455Z" fill="#545454"/>
<path d="M142.421 98.6447C142.272 98.6447 142.123 98.6447 141.97 98.6407C132.882 98.4279 129.67 89.9405 127.891 82.5693C127.867 82.4649 127.903 82.3565 127.987 82.2922L131.847 79.2972C133.884 75.1257 137.06 71.5686 141.286 68.7301C152.443 61.2304 167.48 61.0898 167.633 61.0898C167.75 61.0898 167.85 61.1621 167.891 61.2745L172.817 75.3747C172.853 75.475 172.825 75.5915 172.745 75.6637L153.469 93.4655L152.346 94.8748C150.942 96.3081 147.838 98.6447 142.421 98.6447ZM128.462 82.6094C131.046 93.1564 135.22 97.9341 141.982 98.0947C142.131 98.0987 142.276 98.0987 142.421 98.0987C147.637 98.0987 150.612 95.8624 151.94 94.5054L153.043 93.1163C153.055 93.1002 153.067 93.0841 153.079 93.0721L172.242 75.3747L167.44 61.6318C165.653 61.676 151.924 62.2301 141.592 69.1757C137.426 71.9741 134.307 75.479 132.31 79.5862C132.294 79.6224 132.266 79.6585 132.234 79.6826L128.462 82.6094Z" fill="black"/>
<path d="M152.133 94.6981C150.62 96.2479 147.468 98.4962 141.974 98.3677C133.787 98.175 130.229 91.0968 128.152 82.5051C128.112 82.3445 128.076 82.1799 128.036 82.0193C127.875 81.3287 127.714 80.6181 127.553 79.9035C127.464 79.506 127.376 79.1085 127.291 78.711C127.219 78.3858 127.15 78.0606 127.082 77.7395C127.005 77.3902 126.933 77.0369 126.856 76.6835C126.711 76.005 126.575 75.3305 126.438 74.6641C126.393 74.4513 126.349 74.2385 126.305 74.0257C126.289 73.9334 126.269 73.841 126.249 73.7487C126.22 73.6082 126.192 73.4717 126.164 73.3352C126.112 73.0782 126.063 72.8253 126.011 72.5723C125.975 72.3917 125.939 72.215 125.906 72.0344C125.862 71.8176 125.822 71.6088 125.782 71.396C125.745 71.2113 125.709 71.0226 125.673 70.8379C125.645 70.6974 125.617 70.5609 125.592 70.4204C125.584 70.3883 125.58 70.3521 125.572 70.32C125.548 70.2036 125.528 70.0872 125.504 69.9707C125.504 69.9627 125.504 69.9547 125.5 69.9466C125.472 69.7901 125.44 69.6335 125.411 69.4769C125.383 69.3364 125.355 69.1999 125.331 69.0634C125.303 68.9108 125.27 68.7623 125.242 68.6137C128.144 68.7904 133.123 68.144 138.947 63.4346C138.983 63.5149 139.02 63.5952 139.056 63.6755C139.108 63.7919 139.165 63.9123 139.221 64.0368C139.265 64.1332 139.309 64.2335 139.358 64.3339C139.672 65.0245 140.01 65.7712 140.368 66.5661C140.706 67.3209 141.064 68.1199 141.439 68.959C144.655 76.1696 148.969 86.1626 152.133 94.6981Z" fill="#545454"/>
<path d="M142.421 98.6447C142.272 98.6447 142.123 98.6447 141.97 98.6407C132.882 98.4279 129.67 89.9405 127.891 82.5693C127.851 82.4046 127.814 82.2441 127.774 82.0794C127.613 81.3849 127.452 80.6783 127.291 79.9596C127.202 79.5621 127.114 79.1647 127.025 78.7672C126.953 78.442 126.885 78.1168 126.816 77.7916L126.591 76.7357C126.446 76.0572 126.305 75.3827 126.172 74.7122L126.043 74.0738C126.027 73.9775 126.007 73.8892 125.987 73.8008C125.959 73.6603 125.931 73.5238 125.902 73.3873L125.641 72.0825C125.597 71.8697 125.556 71.6569 125.516 71.4441C125.323 70.4725 125.146 69.5411 124.977 68.6618C124.961 68.5775 124.985 68.4932 125.041 68.433C125.097 68.3728 125.178 68.3326 125.262 68.3406C128.313 68.5253 133.135 67.7866 138.782 63.2217C138.847 63.1695 138.935 63.1494 139.016 63.1695C139.096 63.1896 139.169 63.2458 139.201 63.3221C139.897 64.8517 140.746 66.7307 141.688 68.8425C142.92 71.6047 144.119 74.3428 145.25 76.9726C145.311 77.1091 145.246 77.2697 145.105 77.3299C144.969 77.3901 144.808 77.3259 144.747 77.1853C143.616 74.5556 142.417 71.8215 141.189 69.0633C140.312 67.096 139.515 65.3335 138.847 63.8641C133.389 68.176 128.688 69.0151 125.576 68.8987C125.725 69.6776 125.882 70.4926 126.051 71.3397C126.092 71.5525 126.136 71.7613 126.18 71.9741L126.438 73.2749C126.466 73.4114 126.494 73.5519 126.522 73.6884C126.542 73.7767 126.558 73.8731 126.579 73.9654L126.707 74.5998C126.844 75.2662 126.985 75.9407 127.126 76.6193L127.351 77.6752C127.42 78.0004 127.492 78.3256 127.561 78.6467C127.649 79.0442 127.734 79.4417 127.822 79.8392C127.983 80.5538 128.14 81.2604 128.305 81.951C128.342 82.1156 128.382 82.2762 128.422 82.4368C131.002 93.1042 135.184 97.9341 141.986 98.0906C142.135 98.0947 142.28 98.0947 142.425 98.0947C147.641 98.0947 150.616 95.8584 151.944 94.5014C152.048 94.393 152.222 94.393 152.33 94.4974C152.439 94.6017 152.439 94.7744 152.334 94.8828C150.942 96.308 147.838 98.6447 142.421 98.6447Z" fill="black"/>
<path d="M140.364 66.5621C135.087 70.9062 128.543 71.4 125.782 71.396C125.745 71.2113 125.709 71.0226 125.673 70.8379C125.645 70.6974 125.617 70.5609 125.592 70.4204C125.584 70.3883 125.58 70.3521 125.572 70.32C125.552 70.2036 125.528 70.0872 125.504 69.9707C125.504 69.9627 125.504 69.9547 125.5 69.9466C125.472 69.7901 125.44 69.6335 125.411 69.4769C125.383 69.3364 125.359 69.1999 125.331 69.0634C125.303 68.9108 125.27 68.7623 125.242 68.6137C128.144 68.7904 133.123 68.144 138.947 63.4346C138.983 63.5149 139.02 63.5952 139.056 63.6755C139.108 63.7919 139.165 63.9123 139.221 64.0368C139.265 64.1332 139.309 64.2335 139.358 64.3339C139.668 65.0204 140.006 65.7672 140.364 66.5621Z" fill="#EA0033"/>
<path d="M125.826 71.665C125.673 71.665 125.544 71.5847 125.516 71.4442L125.307 70.3682C125.287 70.2518 125.262 70.1354 125.238 70.0189C125.234 70.0069 125.234 69.9908 125.234 69.9788L124.981 68.6619C124.965 68.5776 124.989 68.4933 125.045 68.4291C125.101 68.3648 125.182 68.3287 125.266 68.3367C128.317 68.5214 133.139 67.7827 138.782 63.2178C138.847 63.1656 138.935 63.1455 139.016 63.1656C139.096 63.1857 139.165 63.2419 139.201 63.3182L139.475 63.9204C139.519 64.0208 139.563 64.1171 139.607 64.2175L140.618 66.4498C140.67 66.5622 140.638 66.6947 140.541 66.7709C135.184 71.1792 128.499 71.665 125.826 71.665ZM125.77 69.9186C125.794 70.035 125.818 70.1514 125.838 70.2679L126.007 71.123C128.704 71.0989 134.955 70.565 140.03 66.4859L139.108 64.4464C139.064 64.346 139.016 64.2456 138.971 64.1493L138.843 63.8682C133.385 68.1802 128.676 69.0233 125.572 68.9028L125.762 69.8945C125.766 69.8985 125.77 69.9065 125.77 69.9186Z" fill="black"/>
<path d="M122.59 59.7931C122.179 61.1823 123.572 66.4979 126.615 65.8636C129.658 65.2292 126.969 59.203 125.291 58.3237C124.26 57.7857 122.835 58.9621 122.59 59.7931Z" fill="white"/>
<path d="M126.124 66.1847C125.363 66.1847 124.647 65.8434 124.027 65.1729C122.642 63.6754 122.01 60.7968 122.328 59.7127C122.509 59.0945 123.198 58.3919 123.926 58.0867C124.47 57.8579 124.985 57.8539 125.415 58.0827C126.776 58.7934 128.523 62.2822 128.237 64.3619C128.1 65.3335 127.561 65.9438 126.671 66.1285C126.486 66.1686 126.305 66.1847 126.124 66.1847ZM122.852 59.8693C122.61 60.6884 123.121 63.3984 124.429 64.8076C125.065 65.4941 125.778 65.7591 126.558 65.5945C127.219 65.458 127.593 65.0284 127.698 64.2856C127.967 62.3585 126.245 59.1266 125.166 58.5645C124.808 58.3798 124.409 58.4762 124.14 58.5886C123.5 58.8616 122.972 59.4638 122.852 59.8693Z" fill="black"/>
<path d="M137.253 59.749C137.253 59.749 136.822 57.1474 135.204 56.9546C133.586 56.7579 128.064 60.038 128.418 61.4111C128.772 62.7802 129.859 63.9244 131.892 63.3222C133.924 62.7119 137.253 59.749 137.253 59.749Z" fill="white"/>
<path d="M130.837 63.7558C130.358 63.7558 129.923 63.6474 129.533 63.4265C128.873 63.0532 128.382 62.3626 128.152 61.4753C128.056 61.1019 128.229 60.6683 128.688 60.1464C129.992 58.6609 133.791 56.513 135.236 56.6816C137.039 56.8984 137.502 59.5883 137.522 59.7048C137.547 59.8533 137.446 59.9938 137.297 60.0179C137.152 60.042 137.007 59.9416 136.983 59.7931C136.979 59.769 136.564 57.3922 135.172 57.2236C134.005 57.067 130.382 59.0463 129.102 60.5037C128.659 61.0056 128.663 61.2545 128.684 61.3388C128.877 62.0816 129.275 62.6557 129.807 62.9528C130.346 63.2579 131.022 63.29 131.815 63.0532C132.6 62.8203 133.739 62.1578 135.103 61.1381C135.224 61.0457 135.397 61.0738 135.486 61.1943C135.574 61.3147 135.55 61.4834 135.429 61.5757C133.993 62.6477 132.829 63.3222 131.972 63.5751C131.569 63.6955 131.191 63.7558 130.837 63.7558Z" fill="black"/>
<path d="M167.629 61.3588C167.629 61.3588 182.509 59.0102 191.638 70.0711C200.766 81.136 201.583 96.1314 201.781 100.339L147.569 100.323C147.569 100.323 145.134 90.9402 148.941 80.3491C152.749 69.7579 167.629 61.3588 167.629 61.3588Z" fill="#545454"/>
<path d="M201.781 100.612L147.569 100.596C147.444 100.596 147.335 100.512 147.303 100.391C147.279 100.295 144.888 90.8037 148.684 80.2567C148.736 80.1162 148.893 80.0399 149.034 80.0921C149.175 80.1443 149.251 80.2969 149.199 80.4414C145.765 89.9847 147.464 98.6286 147.782 100.05L201.491 100.066C200.714 84.5646 195.594 75.2984 191.424 70.2437C182.501 59.4277 167.814 61.6038 167.669 61.6279C167.524 61.6519 167.379 61.5516 167.359 61.403C167.335 61.2545 167.436 61.114 167.585 61.0939C167.734 61.0698 182.726 58.8496 191.847 69.9024C196.093 75.0495 201.314 84.5084 202.05 100.331C202.054 100.403 202.026 100.479 201.974 100.532C201.921 100.584 201.857 100.612 201.781 100.612Z" fill="black"/>
<path d="M187.222 100.989C187.218 100.989 187.214 100.989 187.21 100.989C187.061 100.981 186.945 100.857 186.949 100.704C187.528 88.1098 185.975 81.0317 185.963 80.9634C185.93 80.8149 186.023 80.6703 186.168 80.6382C186.313 80.6061 186.462 80.6984 186.494 80.843C186.51 80.9152 188.08 88.0617 187.496 100.728C187.488 100.873 187.367 100.989 187.222 100.989Z" fill="black"/>
<path d="M172.555 55.7501V63.1415C172.555 63.1415 171.219 65.5303 167.818 65.5303C164.421 65.5303 163.077 63.1415 163.077 63.1415V55.7501H172.555Z" fill="#EA0033"/>
<path d="M167.822 65.8033C164.304 65.8033 162.904 63.3784 162.843 63.274C162.819 63.2339 162.807 63.1897 162.807 63.1415V55.7502C162.807 55.6016 162.928 55.4772 163.081 55.4772H172.555C172.704 55.4772 172.829 55.5976 172.829 55.7502V63.1415C172.829 63.1897 172.817 63.2339 172.793 63.274C172.737 63.3784 171.34 65.8033 167.822 65.8033ZM163.354 63.0652C163.58 63.4266 164.884 65.2613 167.822 65.2613C170.736 65.2613 172.06 63.4145 172.286 63.0652V56.0232H163.354V63.0652Z" fill="black"/>
<path d="M171.831 55.0034V61.2626C171.831 61.2626 170.7 63.286 167.822 63.286C164.944 63.286 163.809 61.2626 163.809 61.2626V55.0034H171.831Z" fill="white"/>
<path d="M167.822 63.555C164.82 63.555 163.62 61.4793 163.572 61.391C163.548 61.3508 163.536 61.3067 163.536 61.2585V55.0034C163.536 54.8548 163.656 54.7303 163.809 54.7303H171.835C171.984 54.7303 172.109 54.8508 172.109 55.0034V61.2625C172.109 61.3107 172.097 61.3548 172.072 61.395C172.02 61.4793 170.825 63.555 167.822 63.555ZM164.079 61.1822C164.284 61.5034 165.379 63.0089 167.822 63.0089C170.245 63.0089 171.356 61.4913 171.561 61.1782V55.2683H164.083V61.1822H164.079Z" fill="black"/>
<path d="M184.964 67.2647C181.628 71.0507 174.363 71.1792 171.65 65.8957C168.933 60.6081 171.831 48.2745 171.831 48.2745L161.342 48.3388C161.342 48.3388 167.033 56.0392 163.805 63.8722C161.346 69.8382 155.965 71.8657 152.499 69.6094C151.416 68.9068 150.519 67.7786 149.959 66.2249C147.605 59.6967 153.819 56.7619 156.11 54.345C158.4 51.932 157.22 46.8372 157.092 42.5293C156.959 38.2214 159.716 30.2238 167.073 29.8665C173.847 29.5413 179.011 35.8727 178.291 45.0105C177.571 54.1482 180.517 55.6498 182.348 57.0871C184.179 58.5204 188.301 63.4787 184.964 67.2647Z" fill="#545454"/>
<path d="M157.941 50.8841C158.428 55.5534 153.361 57.9342 151.791 60.2106C150.221 62.487 149.959 66.2168 152.499 69.6013C151.416 68.8987 150.519 67.7705 149.959 66.2168C147.605 59.6887 153.819 56.7538 156.11 54.3369C158.4 51.924 157.22 46.8291 157.092 42.5212C156.959 38.2133 159.716 30.2157 167.073 29.8584C156.931 31.9501 157.458 46.2149 157.941 50.8841Z" fill="white"/>
<path d="M155.59 70.7777C155.542 70.7777 155.49 70.7777 155.441 70.7777C152.797 70.7175 150.704 69.0915 149.702 66.3132C147.758 60.9253 151.465 57.8981 154.17 55.6859C154.834 55.1439 155.462 54.63 155.912 54.1563C157.587 52.3897 157.301 48.957 157.023 45.6368C156.939 44.609 156.85 43.545 156.818 42.5373C156.701 38.6429 159.112 29.9789 167.057 29.5935C169.984 29.461 172.737 30.549 174.805 32.6769C177.587 35.5354 178.955 40.0361 178.561 45.0305C177.905 53.3854 180.34 55.2242 182.115 56.5652C182.252 56.6696 182.384 56.7699 182.513 56.8703C183.966 58.0065 186.216 60.7085 186.474 63.4908C186.611 64.9763 186.172 66.3092 185.166 67.4494C183.346 69.513 180.404 70.5649 177.49 70.2076C174.777 69.8704 172.616 68.3849 171.404 66.0241C168.893 61.1381 171.034 50.6071 171.485 48.5515L161.849 48.6118C162.98 50.3582 166.868 57.1513 164.055 63.9806C162.348 68.1239 159.036 70.7777 155.59 70.7777ZM167.086 30.1395C159.961 30.4848 157.241 38.3739 157.365 42.5213C157.398 43.5129 157.482 44.5688 157.567 45.5926C157.852 49.0333 158.15 52.5865 156.307 54.5296C155.832 55.0315 155.192 55.5534 154.512 56.1075C151.787 58.3317 148.398 61.1019 150.213 66.1285C151.135 68.682 153.043 70.1795 155.454 70.2317C155.498 70.2317 155.546 70.2317 155.59 70.2317C158.814 70.2317 161.926 67.7104 163.552 63.7638C166.683 56.1677 161.177 48.5716 161.121 48.4953C161.06 48.411 161.052 48.3026 161.096 48.2103C161.141 48.1179 161.237 48.0617 161.338 48.0617L171.827 47.9975C171.911 47.9975 171.988 48.0336 172.04 48.0979C172.093 48.1621 172.113 48.2504 172.093 48.3307C172.064 48.4512 169.251 60.6322 171.887 65.7672C173.014 67.9633 175.027 69.3444 177.554 69.6576C180.251 69.9908 183.081 68.9831 184.755 67.08C185.657 66.0563 186.051 64.8638 185.93 63.5309C185.693 60.9414 183.499 58.3277 182.175 57.2919C182.05 57.1915 181.917 57.0951 181.785 56.9948C179.905 55.5775 177.333 53.6383 178.017 44.9823C178.4 40.1445 177.084 35.7964 174.415 33.0502C172.455 31.0428 169.863 29.999 167.086 30.1395Z" fill="black"/>
<path d="M175.703 47.5037C175.703 53.1967 172.089 57.5207 167.633 57.5207C163.173 57.5207 159.563 53.1967 159.563 47.5037C159.563 41.8106 163.177 36.3103 167.633 36.3103C172.089 36.3103 175.703 41.8106 175.703 47.5037Z" fill="white"/>
<path d="M167.629 57.7937C162.948 57.7937 159.285 53.2729 159.285 47.5036C159.285 41.397 163.185 36.0372 167.629 36.0372C172.072 36.0372 175.973 41.397 175.973 47.5036C175.973 53.2729 172.31 57.7937 167.629 57.7937ZM167.629 36.5833C163.475 36.5833 159.829 41.6861 159.829 47.5076C159.829 52.9718 163.254 57.2517 167.629 57.2517C172.004 57.2517 175.429 52.9718 175.429 47.5076C175.429 41.6861 171.783 36.5833 167.629 36.5833Z" fill="black"/>
<path d="M164.606 47.1865H163.717V45.8094C163.717 45.5645 163.914 45.3678 164.159 45.3678C164.405 45.3678 164.602 45.5645 164.602 45.8094V47.1865H164.606Z" fill="#545454"/>
<path d="M169.645 43.5049C169.69 44.0067 172.314 44.3199 172.39 43.7417C172.467 43.1636 169.585 42.8023 169.645 43.5049Z" fill="#545454"/>
<path d="M170.893 47.1865H170.004V45.8094C170.004 45.5645 170.201 45.3678 170.446 45.3678C170.692 45.3678 170.889 45.5645 170.889 45.8094V47.1865H170.893Z" fill="#545454"/>
<path d="M171.014 47.4595C170.966 47.4595 170.921 47.4475 170.877 47.4234C170.394 47.1424 170.056 47.3993 170.052 47.4033C169.935 47.4957 169.762 47.4756 169.67 47.3592C169.577 47.2427 169.597 47.0701 169.714 46.9777C169.738 46.9577 170.354 46.4879 171.151 46.9577C171.28 47.034 171.324 47.1986 171.247 47.3311C171.199 47.4113 171.106 47.4595 171.014 47.4595Z" fill="black"/>
<path d="M162.916 44.1834C162.57 44.1834 162.207 44.1192 162.151 43.8662C162.135 43.7819 162.151 43.6494 162.336 43.5049C162.827 43.1235 164.296 42.8304 164.824 43.0874C165.005 43.1757 165.041 43.3042 165.041 43.4005C165.037 43.798 163.99 44.0911 163.282 44.1633C163.173 44.1754 163.049 44.1834 162.916 44.1834ZM164.24 43.1556C163.632 43.1556 162.775 43.3804 162.441 43.6374C162.376 43.6856 162.304 43.7618 162.316 43.8301C162.344 43.9546 162.646 44.0549 163.258 43.9947C164.107 43.9104 164.86 43.5892 164.864 43.4005C164.864 43.3604 164.852 43.2961 164.743 43.2439C164.626 43.1837 164.449 43.1556 164.24 43.1556Z" fill="black"/>
<path d="M163.596 47.4595C163.503 47.4595 163.411 47.4113 163.363 47.327C163.286 47.1985 163.33 47.0299 163.459 46.9536C164.26 46.4839 164.872 46.9536 164.896 46.9737C165.013 47.0661 165.033 47.2387 164.94 47.3551C164.848 47.4716 164.679 47.4916 164.562 47.4033C164.526 47.3752 164.196 47.1504 163.733 47.4234C163.693 47.4475 163.644 47.4595 163.596 47.4595Z" fill="black"/>
<path d="M167.565 50.9002C167.214 50.9002 167.009 50.7637 166.896 50.6352C166.582 50.294 166.675 49.776 166.687 49.7198C166.715 49.5713 166.864 49.4789 167.009 49.507C167.158 49.5351 167.251 49.6797 167.222 49.8242C167.206 49.9045 167.19 50.1534 167.299 50.2699C167.363 50.3421 167.484 50.3662 167.657 50.3502C168.003 50.314 168.156 50.1213 168.152 49.9567C168.148 49.8804 168.112 49.7921 167.959 49.7841C167.81 49.7801 167.689 49.6516 167.697 49.503C167.701 49.3545 167.822 49.2421 167.971 49.2421C167.975 49.2421 167.979 49.2421 167.979 49.2421C168.39 49.2581 168.687 49.5432 168.7 49.9406C168.716 50.3622 168.382 50.8239 167.717 50.8922C167.661 50.9002 167.609 50.9002 167.565 50.9002Z" fill="black"/>
<path d="M170.277 36.9767C170.277 36.9767 167.106 45.9499 159.056 46.9175C159.056 46.9175 157.031 33.5882 167.074 32.8696C177.116 32.1509 176.395 46.8211 176.395 46.8211C176.395 46.8211 173.513 46.5 170.277 36.9767Z" fill="#545454"/>
<path d="M159.052 47.1865C158.919 47.1865 158.802 47.0902 158.782 46.9537C158.738 46.6606 157.728 39.7109 161.064 35.5475C162.489 33.7689 164.502 32.7772 167.049 32.5926C169.46 32.4239 171.473 33.1025 173.03 34.6201C177.023 38.5145 176.681 46.492 176.665 46.8292C176.661 46.9055 176.625 46.9737 176.568 47.0219C176.512 47.0701 176.435 47.0942 176.363 47.0861C176.242 47.0741 173.417 46.6566 170.253 37.7396C169.307 39.8755 165.894 46.3635 159.088 47.1825C159.076 47.1865 159.064 47.1865 159.052 47.1865ZM167.766 33.1145C167.544 33.1145 167.319 33.1225 167.09 33.1386C164.703 33.3072 162.819 34.2346 161.491 35.8888C158.657 39.4218 159.136 45.2955 159.285 46.6084C166.88 45.5083 169.984 36.9728 170.012 36.8844C170.052 36.776 170.153 36.7038 170.269 36.7038C170.386 36.7038 170.487 36.78 170.527 36.8884C173.038 44.2798 175.325 46.0302 176.122 46.4357C176.138 44.8097 175.985 38.2736 172.64 35.0135C171.356 33.7529 169.714 33.1145 167.766 33.1145Z" fill="black"/>
<path d="M174.934 46.8212C174.934 46.8212 175.655 45.5967 177.715 46.219C179.776 46.8372 179.189 52.0927 174.934 50.9525V46.8212Z" fill="white"/>
<path d="M176.073 51.382C175.787 51.382 175.482 51.3499 175.156 51.2817C175.007 51.2495 174.914 51.105 174.946 50.9605C174.978 50.8119 175.123 50.7196 175.268 50.7517C177.2 51.1612 178.202 50.0892 178.496 48.949C178.786 47.8168 178.4 46.7087 177.635 46.4799C176.605 46.1708 175.961 46.3595 175.602 46.5722C175.474 46.6485 175.304 46.6044 175.228 46.4759C175.152 46.3474 175.196 46.1788 175.325 46.1025C175.779 45.8335 176.576 45.5926 177.792 45.958C178.975 46.3113 179.346 47.8249 179.024 49.0815C178.734 50.2137 177.796 51.382 176.073 51.382Z" fill="black"/>
<path d="M177.965 48.8486C177.864 48.8486 177.764 48.7924 177.719 48.6921C177.554 48.3388 177.341 48.126 177.092 48.0577C176.697 47.9493 176.295 48.2183 176.291 48.2223C176.166 48.3066 175.997 48.2785 175.912 48.1541C175.828 48.0296 175.856 47.861 175.981 47.7767C176.005 47.7606 176.592 47.3591 177.232 47.5358C177.647 47.6482 177.977 47.9573 178.215 48.4632C178.279 48.5997 178.219 48.7603 178.082 48.8246C178.041 48.8406 178.001 48.8486 177.965 48.8486Z" fill="black"/>
<path d="M176.85 49.5513C176.701 49.5513 176.576 49.4309 176.576 49.2783V47.7607C176.576 47.6121 176.697 47.4877 176.85 47.4877C177.003 47.4877 177.124 47.6081 177.124 47.7607V49.2783C177.124 49.4309 177.003 49.5513 176.85 49.5513Z" fill="black"/>
<path d="M170.124 54.056C169.879 54.1282 169.601 54.1523 169.323 54.1403C168.458 54.1041 167.593 53.6866 167.645 53.0362C167.73 51.9923 169.621 52.3175 170.124 51.5346C170.632 50.7517 171.65 50.5871 171.831 51.5346C171.835 51.5507 171.835 51.5668 171.839 51.5828C172 52.5183 171.593 53.6304 170.124 54.056Z" fill="#545454"/>
<path d="M169.452 54.4132C169.408 54.4132 169.36 54.4132 169.311 54.4092C168.607 54.3771 167.963 54.1282 167.633 53.7508C167.44 53.534 167.351 53.277 167.371 53.0121C167.436 52.2372 168.217 52.0365 168.84 51.8759C169.275 51.7634 169.726 51.647 169.891 51.386C170.249 50.836 170.829 50.5309 171.332 50.6272C171.726 50.7035 172.004 51.0127 172.097 51.4824L172.109 51.5426C172.274 52.5142 171.875 53.8311 170.201 54.3129C169.975 54.3811 169.718 54.4132 169.452 54.4132ZM171.147 51.1572C170.909 51.1572 170.583 51.3258 170.354 51.6831C170.072 52.1208 169.517 52.2653 168.981 52.4018C168.337 52.5704 167.947 52.6949 167.919 53.0562C167.911 53.1767 167.951 53.2851 168.043 53.3895C168.273 53.6504 168.796 53.8391 169.34 53.8632C169.597 53.8753 169.843 53.8471 170.052 53.7869C171.38 53.4055 171.706 52.4179 171.573 51.6229L171.835 51.5306L171.565 51.5828C171.517 51.3379 171.408 51.1933 171.235 51.1612C171.207 51.1612 171.179 51.1572 171.147 51.1572Z" fill="black"/>
<path d="M170.124 54.0559C169.879 54.1282 169.601 54.1523 169.323 54.1402C169.195 53.3975 169.126 52.45 169.883 52.2212C170.479 52.0405 170.809 51.1693 171.839 51.5828C172 52.5182 171.593 53.6304 170.124 54.0559Z" fill="white"/>
<path d="M160.239 46.8212C160.239 46.8212 159.519 45.5967 157.458 46.219C155.397 46.8372 155.985 52.0927 160.239 50.9525V46.8212Z" fill="white"/>
<path d="M158.967 51.382C157.297 51.382 156.355 50.282 156.037 49.1739C155.675 47.9092 156.033 46.3193 157.245 45.954C159.487 45.2795 160.304 46.6244 160.34 46.6806C160.416 46.8091 160.372 46.9777 160.243 47.054C160.114 47.1303 159.949 47.0862 159.873 46.9577C159.845 46.9135 159.217 45.9299 157.406 46.4759C156.544 46.7369 156.275 48.0015 156.568 49.0253C156.903 50.1896 157.989 51.2335 160.038 50.6875C160.183 50.6473 160.332 50.7356 160.372 50.8802C160.412 51.0247 160.324 51.1733 160.179 51.2134C159.736 51.3298 159.334 51.382 158.967 51.382Z" fill="black"/>
<path d="M157.208 48.8487C157.168 48.8487 157.132 48.8406 157.092 48.8246C156.955 48.7603 156.894 48.5997 156.959 48.4632C157.196 47.9574 157.526 47.6482 157.941 47.5358C158.581 47.3632 159.168 47.7606 159.193 47.7767C159.317 47.861 159.346 48.0336 159.261 48.1541C159.177 48.2785 159.008 48.3066 158.883 48.2223C158.875 48.2143 158.472 47.9533 158.078 48.0577C157.828 48.126 157.615 48.3388 157.45 48.6921C157.406 48.7884 157.309 48.8487 157.208 48.8487Z" fill="black"/>
<path d="M158.319 49.5513C158.17 49.5513 158.046 49.4309 158.046 49.2783V47.7607C158.046 47.6121 158.166 47.4877 158.319 47.4877C158.472 47.4877 158.593 47.6081 158.593 47.7607V49.2783C158.593 49.4309 158.468 49.5513 158.319 49.5513Z" fill="black"/>
<path d="M220.17 132H153.183C151.622 132 150.354 130.735 150.354 129.178V94.7262C150.354 93.1685 151.622 91.9038 153.183 91.9038H220.17C221.732 91.9038 223 93.1685 223 94.7262V129.178C223 130.739 221.732 132 220.17 132Z" fill="#EA0033"/>
<path d="M216.898 130.507H149.911C148.201 130.507 146.812 129.117 146.812 127.415V92.9637C146.812 91.2574 148.205 89.8723 149.911 89.8723H216.898C218.609 89.8723 219.997 91.2614 219.997 92.9637V127.415C220.001 129.117 218.609 130.507 216.898 130.507ZM149.911 90.4143C148.502 90.4143 147.355 91.5585 147.355 92.9637V127.415C147.355 128.82 148.502 129.965 149.911 129.965H216.898C218.307 129.965 219.454 128.82 219.454 127.415V92.9637C219.454 91.5585 218.307 90.4143 216.898 90.4143H149.911Z" fill="black"/>
<path d="M208.277 103.173H165.138C164.989 103.173 164.864 103.053 164.864 102.9C164.864 102.748 164.985 102.627 165.138 102.627H208.273C208.422 102.627 208.546 102.748 208.546 102.9C208.546 103.053 208.426 103.173 208.277 103.173Z" fill="white"/>
<path d="M208.277 113.15H165.138C164.989 113.15 164.864 113.03 164.864 112.877C164.864 112.725 164.985 112.604 165.138 112.604H208.273C208.422 112.604 208.546 112.725 208.546 112.877C208.546 113.03 208.426 113.15 208.277 113.15Z" fill="white"/>
<path d="M208.277 123.131H165.138C164.989 123.131 164.864 123.011 164.864 122.858C164.864 122.706 164.985 122.585 165.138 122.585H208.273C208.422 122.585 208.546 122.706 208.546 122.858C208.546 123.011 208.426 123.131 208.277 123.131Z" fill="white"/>
<g clip-path="url(#clip0_416_3)">
<path d="M82.1669 55.5979C79.4266 54.737 76.689 53.8861 73.6708 52.9402C74.8092 51.3751 76.327 51.0269 77.7059 51.3114C81.7876 52.1584 85.879 53.0613 89.83 54.3527C92.096 55.0907 92.3456 57.1134 90.6024 58.7236C87.695 61.4062 84.6567 63.9376 81.6669 66.5306C81.495 66.683 81.2895 66.9082 81.1003 66.9163C80.4741 66.9406 79.85 66.8738 79.2267 66.8494C79.2651 66.3181 79.1016 65.6282 79.3734 65.2735C80.2877 64.0821 81.3583 62.9977 82.366 61.877C82.8992 61.2875 83.4288 60.7043 83.7411 59.5679C82.5643 59.8194 81.3706 60.0276 80.2161 60.3422C56.6179 66.6866 40.4553 87.2873 39.8786 111.804C39.8042 114.94 40.12 118.083 40.2339 121.226C40.2723 122.322 40.2521 123.417 40.2643 124.515C40.0153 124.597 39.7726 124.684 39.5236 124.766C39.0746 124.222 38.3678 123.747 38.2191 123.133C37.6836 120.995 37.1762 118.823 36.9463 116.636C34.645 94.4748 46.7299 72.5263 67.2162 61.9699C71.1215 59.9558 75.4002 58.6605 79.5181 57.0626C80.3646 56.7294 81.2619 56.5262 82.1333 56.2662C82.1406 56.0356 82.1569 55.8185 82.1669 55.5979Z" fill="black"/>
</g>
<defs>
<clipPath id="clip0_416_3">
<rect width="27.8613" height="86.213" fill="white" transform="translate(49.4088 130.465) rotate(-150)"/>
</clipPath>
</defs>
</svg>
